RobotoSerifMicro-HairlineWideItalic.ufo
<glyph name="exclam" format="2">
  <advance width="357"/>
  <unicode hex="0021"/>
  <outline>
    <contour>
      <point x="352" y="755" type="line"/>
      <point x="303" y="573"/>
      <point x="260" y="476"/>
      <point x="203" y="258" type="curve"/>
      <point x="155" y="258" type="line"/>
      <point x="212" y="476"/>
      <point x="220" y="572"/>
      <point x="269" y="755" type="curve"/>
    </contour>
    <component base="period" xOffset="-17"/>
  </outline>
</glyph>
<glyph name="comma" format="2">
  <advance width="365"/>
  <unicode hex="002C"/>
  <outline>
    <contour>
      <point x="48" y="-183" type="line"/>
      <point x="214" y="-164"/>
      <point x="240" y="-2"/>
      <point x="240" y="31" type="curve" smooth="yes"/>
      <point x="240" y="83"/>
      <point x="214" y="105"/>
      <point x="159" y="105" type="curve" smooth="yes"/>
      <point x="104" y="105"/>
      <point x="83" y="76"/>
      <point x="83" y="50" type="curve" smooth="yes"/>
      <point x="83" y="20"/>
      <point x="105" y="-2"/>
      <point x="148" y="-2" type="curve" smooth="yes"/>
      <point x="173" y="-2"/>
      <point x="202" y="6"/>
      <point x="212" y="17" type="curve"/>
      <point x="209" y="23"/>
      <point x="202" y="46"/>
      <point x="191" y="6" type="curve"/>
      <point x="175" y="-76"/>
      <point x="136" y="-128"/>
      <point x="23" y="-139" type="curve"/>
    </contour>
  </outline>
</glyph>
<glyph name="question" format="2">
  <advance width="614"/>
  <unicode hex="003F"/>
  <outline>
    <contour>
      <point x="251" y="426" type="curve"/>
      <point x="204" y="248" type="line"/>
      <point x="264" y="248" type="line"/>
      <point x="300" y="385" type="line"/>
      <point x="461" y="388"/>
      <point x="595" y="456"/>
      <point x="595" y="609" type="curve" smooth="yes"/>
      <point x="595" y="704"/>
      <point x="517" y="762"/>
      <point x="383" y="762" type="curve" smooth="yes"/>
      <point x="305" y="762"/>
      <point x="212" y="729"/>
      <point x="188" y="715" type="curve"/>
      <point x="150" y="569" type="line"/>
      <point x="210" y="569" type="line"/>
      <point x="246" y="704" type="line"/>
      <point x="198" y="701"/>
      <point x="188" y="674"/>
      <point x="186" y="657" type="curve"/>
      <point x="207" y="679"/>
      <point x="294" y="718"/>
      <point x="380" y="718" type="curve" smooth="yes"/>
      <point x="473" y="718"/>
      <point x="535" y="678"/>
      <point x="535" y="604" type="curve" smooth="yes"/>
      <point x="535" y="457"/>
      <point x="410" y="427"/>
    </contour>
    <component base="period" xOffset="47" yOffset="-1"/>
  </outline>
</glyph>
<glyph name="P" format="2">
  <advance width="684"/>
  <unicode hex="0050"/>
  <outline>
    <contour>
      <point x="216" y="327" type="line"/>
      <point x="306" y="673" type="line"/>
      <point x="468" y="673" type="line"/>
      <point x="582" y="673"/>
      <point x="637" y="604"/>
      <point x="637" y="525" type="curve" smooth="yes"/>
      <point x="637" y="404"/>
      <point x="562" y="327"/>
      <point x="420" y="327" type="curve" smooth="yes"/>
    </contour>
    <contour>
      <point x="164" y="710" type="line"/>
      <point x="152" y="666" type="line"/>
      <point x="163" y="666" type="line" smooth="yes"/>
      <point x="215" y="666"/>
      <point x="251" y="659"/>
      <point x="244" y="630" type="curve" smooth="yes"/>
      <point x="99" y="80" type="line" smooth="yes"/>
      <point x="91" y="51"/>
      <point x="51" y="44"/>
      <point x="-1" y="44" type="curve" smooth="yes"/>
      <point x="-13" y="44" type="line"/>
      <point x="-25" y="0" type="line"/>
      <point x="246" y="0" type="line"/>
      <point x="258" y="44" type="line"/>
      <point x="242" y="44" type="line" smooth="yes"/>
      <point x="191" y="44"/>
      <point x="142" y="47"/>
      <point x="144" y="54" type="curve" smooth="yes"/>
      <point x="206" y="291" type="line"/>
      <point x="415" y="291" type="line" smooth="yes"/>
      <point x="581" y="291"/>
      <point x="691" y="384"/>
      <point x="691" y="525" type="curve" smooth="yes"/>
      <point x="691" y="623"/>
      <point x="615" y="710"/>
      <point x="467" y="710" type="curve"/>
    </contour>
  </outline>
</glyph>
<glyph name="Y" format="2">
  <advance width="714"/>
  <unicode hex="0059"/>
  <anchor x="366" y="741" name="top"/>
  <anchor x="366" y="0" name="bottom"/>
  <outline>
    <contour>
      <point x="139" y="0" type="line"/>
      <point x="422" y="0" type="line"/>
      <point x="435" y="44" type="line"/>
      <point x="413" y="44" type="line" smooth="yes"/>
      <point x="362" y="44"/>
      <point x="320" y="51"/>
      <point x="327" y="80" type="curve" smooth="yes"/>
      <point x="378" y="264" type="line"/>
      <point x="368" y="254" type="line"/>
      <point x="675" y="597" type="line" smooth="yes"/>
      <point x="720" y="649"/>
      <point x="741" y="666"/>
      <point x="785" y="666" type="curve" smooth="yes"/>
      <point x="790" y="666" type="line"/>
      <point x="803" y="710" type="line"/>
      <point x="569" y="710" type="line"/>
      <point x="557" y="666" type="line"/>
      <point x="567" y="666" type="line" smooth="yes"/>
      <point x="629" y="666"/>
      <point x="661" y="656"/>
      <point x="658" y="643" type="curve"/>
      <point x="337" y="275" type="line"/>
      <point x="375" y="283" type="line"/>
      <point x="243" y="655" type="line"/>
      <point x="245" y="662"/>
      <point x="281" y="666"/>
      <point x="344" y="666" type="curve" smooth="yes"/>
      <point x="353" y="666" type="line"/>
      <point x="366" y="710" type="line"/>
      <point x="138" y="710" type="line"/>
      <point x="126" y="666" type="line"/>
      <point x="131" y="666" type="line" smooth="yes"/>
      <point x="175" y="666"/>
      <point x="187" y="647"/>
      <point x="206" y="593" type="curve" smooth="yes"/>
      <point x="331" y="258" type="line"/>
      <point x="328" y="264" type="line"/>
      <point x="278" y="80" type="line" smooth="yes"/>
      <point x="271" y="51"/>
      <point x="224" y="44"/>
      <point x="173" y="44" type="curve" smooth="yes"/>
      <point x="152" y="44" type="line"/>
    </contour>
  </outline>
</glyph>
<glyph name="backslash" format="2">
  <advance width="570"/>
  <unicode hex="005C"/>
  <outline>
    <contour>
      <point x="102" y="780" type="line"/>
      <point x="57" y="780" type="line"/>
      <point x="468" y="-158" type="line"/>
      <point x="514" y="-158" type="line"/>
    </contour>
  </outline>
</glyph>
<glyph name="k" format="2">
  <advance width="595"/>
  <unicode hex="006B"/>
  <anchor x="303" y="0" name="bottom"/>
  <outline>
    <contour>
      <point x="429" y="62" type="line" smooth="yes"/>
      <point x="438" y="45"/>
      <point x="447" y="40"/>
      <point x="472" y="40" type="curve" smooth="yes"/>
      <point x="493" y="40"/>
      <point x="516" y="40"/>
      <point x="536" y="40" type="curve"/>
      <point x="533" y="0" type="line"/>
      <point x="512" y="0"/>
      <point x="490" y="0"/>
      <point x="469" y="0" type="curve"/>
      <point x="416" y="0"/>
      <point x="403" y="12"/>
      <point x="375" y="67" type="curve"/>
      <point x="253" y="304" type="line"/>
      <point x="254" y="309" type="line"/>
      <point x="348" y="395"/>
      <point x="441" y="479"/>
      <point x="535" y="565" type="curve"/>
      <point x="597" y="565" type="line"/>
      <point x="597" y="550" type="line"/>
      <point x="497" y="470"/>
      <point x="397" y="391"/>
      <point x="297" y="311" type="curve"/>
      <point x="294" y="324" type="line"/>
    </contour>
    <contour>
      <point x="64" y="0" type="line"/>
      <point x="248" y="705" type="line" smooth="yes"/>
      <point x="253" y="724"/>
      <point x="228" y="731"/>
      <point x="174" y="742" type="curve" smooth="yes"/>
      <point x="164" y="744" type="line"/>
      <point x="173" y="780" type="line"/>
      <point x="319" y="780" type="line"/>
      <point x="113" y="0" type="line"/>
    </contour>
  </outline>
</glyph>
<glyph name="x" format="2">
  <advance width="597"/>
  <unicode hex="0078"/>
  <outline>
    <contour>
      <point x="306" y="265" type="line"/>
      <point x="579" y="554" type="line"/>
      <point x="579" y="565" type="line"/>
      <point x="519" y="565" type="line"/>
      <point x="312" y="313" type="line"/>
    </contour>
    <contour>
      <point x="23" y="0" type="line"/>
      <point x="83" y="0" type="line"/>
      <point x="303" y="279" type="line"/>
      <point x="300" y="318" type="line"/>
      <point x="24" y="11" type="line"/>
    </contour>
    <contour>
      <point x="462" y="0" type="curve"/>
      <point x="482" y="0"/>
      <point x="502" y="0"/>
      <point x="523" y="0" type="curve"/>
      <point x="531" y="40" type="line"/>
      <point x="509" y="40"/>
      <point x="488" y="40"/>
      <point x="466" y="40" type="curve"/>
      <point x="438" y="40"/>
      <point x="430" y="46"/>
      <point x="420" y="70" type="curve" smooth="yes"/>
      <point x="222" y="565" type="line"/>
      <point x="111" y="565" type="line"/>
      <point x="100" y="528" type="line"/>
      <point x="111" y="526" type="line" smooth="yes"/>
      <point x="166" y="517"/>
      <point x="199" y="500"/>
      <point x="211" y="468" type="curve" smooth="yes"/>
      <point x="373" y="62" type="line" smooth="yes"/>
      <point x="392" y="17"/>
      <point x="412" y="0"/>
    </contour>
  </outline>
</glyph>
<glyph name="asciitilde" format="2">
  <advance width="570"/>
  <unicode hex="007E"/>
  <outline>
    <contour>
      <point x="219" y="471" type="curve" smooth="yes"/>
      <point x="132" y="471"/>
      <point x="88" y="402"/>
      <point x="53" y="285" type="curve"/>
      <point x="91" y="275" type="line"/>
      <point x="120" y="370"/>
      <point x="155" y="438"/>
      <point x="213" y="438" type="curve" smooth="yes"/>
      <point x="307" y="438"/>
      <point x="258" y="282"/>
      <point x="393" y="282" type="curve" smooth="yes"/>
      <point x="472" y="282"/>
      <point x="513" y="340"/>
      <point x="552" y="458" type="curve"/>
      <point x="514" y="472" type="line"/>
      <point x="486" y="388"/>
      <point x="454" y="315"/>
      <point x="398" y="315" type="curve" smooth="yes"/>
      <point x="304" y="315"/>
      <point x="355" y="471"/>
    </contour>
  </outline>
</glyph>
<glyph name="cent" format="2">
  <advance width="594"/>
  <unicode hex="00A2"/>
  <outline>
    <contour>
      <point x="277" y="-13" type="curve" smooth="yes"/>
      <point x="376" y="-13"/>
      <point x="456" y="40"/>
      <point x="508" y="127" type="curve"/>
      <point x="471" y="148" type="line"/>
      <point x="427" y="79"/>
      <point x="369" y="27"/>
      <point x="281" y="27" type="curve" smooth="yes"/>
      <point x="157" y="27"/>
      <point x="92" y="105"/>
      <point x="92" y="216" type="curve" smooth="yes"/>
      <point x="92" y="361"/>
      <point x="166" y="537"/>
      <point x="367" y="537" type="curve" smooth="yes"/>
      <point x="457" y="537"/>
      <point x="513" y="506"/>
      <point x="537" y="487" type="curve"/>
      <point x="539" y="500"/>
      <point x="534" y="535"/>
      <point x="508" y="548" type="curve"/>
      <point x="470" y="408" type="line"/>
      <point x="528" y="408" type="line"/>
      <point x="562" y="528" type="line"/>
      <point x="539" y="542"/>
      <point x="478" y="576"/>
      <point x="367" y="576" type="curve" smooth="yes"/>
      <point x="153" y="576"/>
      <point x="41" y="397"/>
      <point x="41" y="213" type="curve" smooth="yes"/>
      <point x="41" y="85"/>
      <point x="129" y="-13"/>
    </contour>
    <contour>
      <point x="164" y="-166" type="line"/>
      <point x="205" y="-166" type="line"/>
      <point x="252" y="12" type="line"/>
      <point x="253" y="23" type="line"/>
      <point x="390" y="544" type="line"/>
      <point x="395" y="555" type="line"/>
      <point x="434" y="703" type="line"/>
      <point x="393" y="703" type="line"/>
      <point x="354" y="554" type="line"/>
      <point x="353" y="544" type="line"/>
      <point x="217" y="28" type="line"/>
      <point x="210" y="11" type="line"/>
    </contour>
  </outline>
</glyph>
<glyph name="acute" format="2">
  <advance width="530"/>
  <unicode hex="00B4"/>
  <anchor x="230" y="527" name="_top"/>
  <outline>
    <contour>
      <point x="227" y="805" type="curve" smooth="yes"/>
      <point x="135" y="679" type="line"/>
      <point x="129" y="661" type="line"/>
      <point x="152" y="661" type="line"/>
      <point x="272" y="757" type="line" smooth="yes"/>
      <point x="308" y="787"/>
      <point x="329" y="797"/>
      <point x="329" y="823" type="curve" smooth="yes"/>
      <point x="329" y="837"/>
      <point x="315" y="854"/>
      <point x="289" y="854" type="curve" smooth="yes"/>
      <point x="260" y="854"/>
      <point x="250" y="836"/>
    </contour>
  </outline>
</glyph>
<glyph name="multiply" format="2">
  <advance width="594"/>
  <unicode hex="00D7"/>
  <outline>
    <contour>
      <point x="78" y="153" type="line"/>
      <point x="545" y="494" type="line"/>
      <point x="516" y="527" type="line"/>
      <point x="50" y="185" type="line"/>
    </contour>
    <contour>
      <point x="415" y="153" type="line"/>
      <point x="454" y="179" type="line"/>
      <point x="180" y="527" type="line"/>
      <point x="141" y="500" type="line"/>
    </contour>
  </outline>
</glyph>
<glyph name="icircumflex" format="2">
  <advance width="350"/>
  <unicode hex="00EE"/>
  <outline>
    <contour>
      <point x="287" y="828" type="line"/>
      <point x="369" y="677" type="line"/>
      <point x="364" y="656" type="line"/>
      <point x="345" y="656" type="line"/>
      <point x="237" y="783" type="line"/>
      <point x="263" y="791" type="line"/>
      <point x="96" y="656" type="line"/>
      <point x="71" y="656" type="line"/>
      <point x="76" y="677" type="line"/>
      <point x="227" y="828" type="line"/>
    </contour>
    <component base="dotlessi"/>
  </outline>
</glyph>
<glyph name="oslash" format="2">
  <advance width="683"/>
  <unicode hex="00F8"/>
  <anchor x="341" y="565" name="top"/>
  <outline>
    <contour>
      <point x="306" y="-13" type="curve" smooth="yes"/>
      <point x="541" y="-13"/>
      <point x="620" y="215"/>
      <point x="620" y="353" type="curve" smooth="yes"/>
      <point x="620" y="495"/>
      <point x="536" y="575"/>
      <point x="386" y="575" type="curve" smooth="yes"/>
      <point x="151" y="575"/>
      <point x="72" y="347"/>
      <point x="72" y="209" type="curve" smooth="yes"/>
      <point x="72" y="67"/>
      <point x="156" y="-13"/>
    </contour>
    <contour>
      <point x="-30" y="0" type="line"/>
      <point x="32" y="0" type="line"/>
      <point x="712" y="562" type="line"/>
      <point x="650" y="562" type="line"/>
    </contour>
    <contour>
      <point x="309" y="28" type="curve" smooth="yes"/>
      <point x="174" y="28"/>
      <point x="127" y="78"/>
      <point x="127" y="212" type="curve" smooth="yes"/>
      <point x="127" y="277"/>
      <point x="141" y="361"/>
      <point x="179" y="428" type="curve" smooth="yes"/>
      <point x="218" y="489"/>
      <point x="281" y="534"/>
      <point x="382" y="534" type="curve" smooth="yes"/>
      <point x="518" y="534"/>
      <point x="564" y="484"/>
      <point x="564" y="350" type="curve" smooth="yes"/>
      <point x="564" y="285"/>
      <point x="550" y="201"/>
      <point x="512" y="134" type="curve" smooth="yes"/>
      <point x="474" y="73"/>
      <point x="410" y="28"/>
    </contour>
  </outline>
</glyph>
<glyph name="Hbar" format="2">
  <advance width="853"/>
  <unicode hex="0126"/>
  <outline>
    <contour>
      <point x="218" y="395" type="line"/>
      <point x="207" y="354" type="line"/>
      <point x="677" y="354" type="line"/>
      <point x="688" y="395" type="line"/>
    </contour>
    <contour>
      <point x="108" y="500" type="line"/>
      <point x="846" y="500" type="line"/>
      <point x="856" y="533" type="line"/>
      <point x="118" y="533" type="line"/>
    </contour>
    <contour>
      <point x="-25" y="0" type="line"/>
      <point x="228" y="0" type="line"/>
      <point x="240" y="44" type="line"/>
      <point x="231" y="44" type="line" smooth="yes"/>
      <point x="191" y="44"/>
      <point x="140" y="47"/>
      <point x="142" y="54" type="curve" smooth="yes"/>
      <point x="301" y="656" type="line" smooth="yes"/>
      <point x="303" y="663"/>
      <point x="355" y="666"/>
      <point x="395" y="666" type="curve" smooth="yes"/>
      <point x="405" y="666" type="line"/>
      <point x="417" y="710" type="line"/>
      <point x="164" y="710" type="line"/>
      <point x="152" y="666" type="line"/>
      <point x="163" y="666" type="line" smooth="yes"/>
      <point x="215" y="666"/>
      <point x="251" y="659"/>
      <point x="244" y="630" type="curve" smooth="yes"/>
      <point x="99" y="80" type="line" smooth="yes"/>
      <point x="91" y="51"/>
      <point x="51" y="44"/>
      <point x="-1" y="44" type="curve" smooth="yes"/>
      <point x="-13" y="44" type="line"/>
    </contour>
    <contour>
      <point x="461" y="0" type="line"/>
      <point x="715" y="0" type="line"/>
      <point x="727" y="44" type="line"/>
      <point x="716" y="44" type="line" smooth="yes"/>
      <point x="664" y="44"/>
      <point x="628" y="51"/>
      <point x="635" y="80" type="curve" smooth="yes"/>
      <point x="780" y="630" type="line" smooth="yes"/>
      <point x="787" y="659"/>
      <point x="828" y="666"/>
      <point x="880" y="666" type="curve" smooth="yes"/>
      <point x="891" y="666" type="line"/>
      <point x="904" y="710" type="line"/>
      <point x="650" y="710" type="line"/>
      <point x="638" y="666" type="line"/>
      <point x="648" y="666" type="line" smooth="yes"/>
      <point x="688" y="666"/>
      <point x="739" y="663"/>
      <point x="737" y="656" type="curve" smooth="yes"/>
      <point x="578" y="54" type="line" smooth="yes"/>
      <point x="576" y="47"/>
      <point x="523" y="44"/>
      <point x="483" y="44" type="curve" smooth="yes"/>
      <point x="473" y="44" type="line"/>
    </contour>
  </outline>
</glyph>
<glyph name="iogonek" format="2">
  <advance width="350"/>
  <unicode hex="012F"/>
  <outline>
    <contour>
      <point x="249" y="35" type="line"/>
      <point x="37" y="-74"/>
      <point x="4" y="-110"/>
      <point x="4" y="-166" type="curve" smooth="yes"/>
      <point x="4" y="-215"/>
      <point x="46" y="-252"/>
      <point x="118" y="-252" type="curve" smooth="yes"/>
      <point x="174" y="-252"/>
      <point x="213" y="-227"/>
      <point x="254" y="-189" type="curve"/>
      <point x="232" y="-163" type="line"/>
      <point x="207" y="-184"/>
      <point x="172" y="-217"/>
      <point x="122" y="-217" type="curve" smooth="yes"/>
      <point x="78" y="-217"/>
      <point x="61" y="-197"/>
      <point x="61" y="-163" type="curve" smooth="yes"/>
      <point x="61" y="-103"/>
      <point x="113" y="-68"/>
      <point x="263" y="11" type="curve"/>
    </contour>
    <component base="i"/>
  </outline>
</glyph>
<glyph name="Tbar" format="2">
  <advance width="701"/>
  <unicode hex="0166"/>
  <outline>
    <contour>
      <point x="109" y="338" type="line"/>
      <point x="96" y="291" type="line"/>
      <point x="588" y="291" type="line"/>
      <point x="601" y="338" type="line"/>
    </contour>
    <component base="T"/>
  </outline>
</glyph>
<glyph name="ohorn" format="2">
  <advance width="736"/>
  <unicode hex="01A1"/>
  <anchor x="364" y="565" name="top"/>
  <outline>
    <contour>
      <point x="280" y="-13" type="curve" smooth="yes"/>
      <point x="515" y="-13"/>
      <point x="595" y="215"/>
      <point x="595" y="352" type="curve" smooth="yes"/>
      <point x="595" y="455"/>
      <point x="527" y="527"/>
      <point x="449" y="549" type="curve"/>
      <point x="469" y="522" type="line"/>
      <point x="479" y="556" type="line"/>
      <point x="429" y="564" type="line"/>
      <point x="497" y="531"/>
      <point x="551" y="506"/>
      <point x="602" y="506" type="curve"/>
      <point x="666" y="506"/>
      <point x="740" y="529"/>
      <point x="799" y="737" type="curve"/>
      <point x="748" y="737" type="line"/>
      <point x="704" y="599"/>
      <point x="673" y="544"/>
      <point x="593" y="544" type="curve" smooth="yes"/>
      <point x="524" y="544"/>
      <point x="458" y="575"/>
      <point x="360" y="575" type="curve" smooth="yes"/>
      <point x="125" y="575"/>
      <point x="46" y="347"/>
      <point x="46" y="209" type="curve" smooth="yes"/>
      <point x="46" y="73"/>
      <point x="130" y="-13"/>
    </contour>
    <contour>
      <point x="284" y="28" type="curve" smooth="yes"/>
      <point x="159" y="28"/>
      <point x="102" y="83"/>
      <point x="102" y="212" type="curve" smooth="yes"/>
      <point x="102" y="277"/>
      <point x="116" y="361"/>
      <point x="154" y="428" type="curve" smooth="yes"/>
      <point x="192" y="489"/>
      <point x="256" y="534"/>
      <point x="357" y="534" type="curve" smooth="yes"/>
      <point x="481" y="534"/>
      <point x="539" y="479"/>
      <point x="539" y="350" type="curve" smooth="yes"/>
      <point x="539" y="285"/>
      <point x="525" y="201"/>
      <point x="487" y="134" type="curve" smooth="yes"/>
      <point x="448" y="73"/>
      <point x="385" y="28"/>
    </contour>
  </outline>
</glyph>
<glyph name="dotlessj" format="2">
  <advance width="333"/>
  <unicode hex="0237"/>
  <anchor x="160" y="565" name="top"/>
  <outline>
    <contour>
      <point x="65" y="-89" type="line" smooth="yes"/>
      <point x="44" y="-184"/>
      <point x="13" y="-209"/>
      <point x="-53" y="-209" type="curve" smooth="yes"/>
      <point x="-95" y="-209"/>
      <point x="-139" y="-194"/>
      <point x="-158" y="-188" type="curve"/>
      <point x="-172" y="-227" type="line"/>
      <point x="-154" y="-235"/>
      <point x="-104" y="-250"/>
      <point x="-52" y="-250" type="curve" smooth="yes"/>
      <point x="38" y="-250"/>
      <point x="89" y="-203"/>
      <point x="112" y="-100" type="curve" smooth="yes"/>
      <point x="258" y="565" type="line"/>
      <point x="101" y="565" type="line"/>
      <point x="91" y="521" type="line"/>
      <point x="105" y="519" type="line" smooth="yes"/>
      <point x="161" y="512"/>
      <point x="195" y="507"/>
      <point x="188" y="474" type="curve" smooth="yes"/>
    </contour>
  </outline>
</glyph>
<glyph name="schwa" format="2">
  <advance width="587"/>
  <unicode hex="0259"/>
  <outline>
    <contour>
      <point x="343" y="575" type="curve" smooth="yes"/>
      <point x="220" y="575"/>
      <point x="136" y="518"/>
      <point x="86" y="462" type="curve"/>
      <point x="122" y="435" type="line"/>
      <point x="171" y="489"/>
      <point x="235" y="534"/>
      <point x="336" y="534" type="curve" smooth="yes"/>
      <point x="428" y="534"/>
      <point x="485" y="486"/>
      <point x="485" y="379" type="curve" smooth="yes"/>
      <point x="485" y="252"/>
      <point x="395" y="29"/>
      <point x="196" y="29" type="curve" smooth="yes"/>
      <point x="129" y="29"/>
      <point x="89" y="52"/>
      <point x="89" y="112" type="curve" smooth="yes"/>
      <point x="89" y="206"/>
      <point x="170" y="296"/>
      <point x="493" y="308" type="curve"/>
      <point x="497" y="337" type="line"/>
      <point x="140" y="329"/>
      <point x="34" y="220"/>
      <point x="34" y="113" type="curve" smooth="yes"/>
      <point x="34" y="35"/>
      <point x="85" y="-12"/>
      <point x="195" y="-12" type="curve" smooth="yes"/>
      <point x="416" y="-12"/>
      <point x="541" y="224"/>
      <point x="541" y="379" type="curve" smooth="yes"/>
      <point x="541" y="495"/>
      <point x="478" y="575"/>
    </contour>
  </outline>
</glyph>
<glyph name="ring" format="2">
  <advance width="530"/>
  <unicode hex="02DA"/>
  <anchor x="264" y="526" name="_top"/>
  <outline>
    <contour>
      <point x="249" y="679" type="curve" smooth="yes"/>
      <point x="202" y="679"/>
      <point x="173" y="702"/>
      <point x="173" y="744" type="curve" smooth="yes"/>
      <point x="173" y="791"/>
      <point x="202" y="827"/>
      <point x="260" y="827" type="curve" smooth="yes"/>
      <point x="307" y="827"/>
      <point x="336" y="804"/>
      <point x="336" y="762" type="curve" smooth="yes"/>
      <point x="336" y="715"/>
      <point x="307" y="679"/>
    </contour>
    <contour>
      <point x="248" y="644" type="curve" smooth="yes"/>
      <point x="335" y="644"/>
      <point x="388" y="692"/>
      <point x="388" y="764" type="curve" smooth="yes"/>
      <point x="388" y="819"/>
      <point x="342" y="862"/>
      <point x="261" y="862" type="curve" smooth="yes"/>
      <point x="174" y="862"/>
      <point x="120" y="814"/>
      <point x="120" y="742" type="curve" smooth="yes"/>
      <point x="120" y="687"/>
      <point x="167" y="644"/>
    </contour>
  </outline>
</glyph>
<glyph name="hungarumlaut" format="2">
  <advance width="530"/>
  <unicode hex="02DD"/>
  <anchor x="272" y="525" name="_top"/>
  <outline>
    <contour>
      <point x="124" y="807" type="curve" smooth="yes"/>
      <point x="56" y="679" type="line"/>
      <point x="51" y="661" type="line"/>
      <point x="75" y="661" type="line"/>
      <point x="171" y="765" type="line" smooth="yes"/>
      <point x="202" y="798"/>
      <point x="219" y="811"/>
      <point x="219" y="835" type="curve" smooth="yes"/>
      <point x="219" y="849"/>
      <point x="206" y="862"/>
      <point x="183" y="862" type="curve" smooth="yes"/>
      <point x="152" y="862"/>
      <point x="142" y="841"/>
    </contour>
    <contour>
      <point x="313" y="807" type="curve" smooth="yes"/>
      <point x="245" y="679" type="line"/>
      <point x="239" y="661" type="line"/>
      <point x="263" y="661" type="line"/>
      <point x="359" y="765" type="line" smooth="yes"/>
      <point x="390" y="798"/>
      <point x="407" y="811"/>
      <point x="407" y="835" type="curve" smooth="yes"/>
      <point x="407" y="849"/>
      <point x="394" y="862"/>
      <point x="372" y="862" type="curve" smooth="yes"/>
      <point x="340" y="862"/>
      <point x="330" y="841"/>
    </contour>
  </outline>
</glyph>
<glyph name="mu" format="2">
  <advance width="641"/>
  <unicode hex="03BC"/>
  <outline>
    <contour>
      <point x="492" y="-11" type="curve" smooth="yes"/>
      <point x="542" y="-11"/>
      <point x="575" y="6"/>
      <point x="603" y="93" type="curve"/>
      <point x="563" y="101" type="line"/>
      <point x="549" y="56"/>
      <point x="535" y="30"/>
      <point x="498" y="30" type="curve"/>
      <point x="467" y="30"/>
      <point x="451" y="40"/>
      <point x="451" y="79" type="curve" smooth="yes"/>
      <point x="451" y="116"/>
      <point x="457" y="142"/>
      <point x="470" y="199" type="curve" smooth="yes"/>
      <point x="570" y="565" type="line"/>
      <point x="520" y="565" type="line"/>
      <point x="421" y="204" type="line"/>
      <point x="417" y="175" type="line"/>
      <point x="411" y="139"/>
      <point x="404" y="101"/>
      <point x="404" y="72" type="curve" smooth="yes"/>
      <point x="404" y="19"/>
      <point x="438" y="-11"/>
    </contour>
    <contour>
      <point x="-32" y="-250" type="line"/>
      <point x="33" y="-250" type="line"/>
      <point x="69" y="-116"/>
      <point x="60" y="-34"/>
      <point x="96" y="149" type="curve"/>
      <point x="82" y="106" type="line"/>
      <point x="80" y="23"/>
      <point x="104" y="-11"/>
      <point x="168" y="-11" type="curve" smooth="yes"/>
      <point x="274" y="-11"/>
      <point x="355" y="87"/>
      <point x="455" y="214" type="curve"/>
      <point x="440" y="239" type="line"/>
      <point x="334" y="106"/>
      <point x="268" y="34"/>
      <point x="178" y="34" type="curve" smooth="yes"/>
      <point x="129" y="34"/>
      <point x="114" y="48"/>
      <point x="114" y="74" type="curve" smooth="yes"/>
      <point x="114" y="98"/>
      <point x="120" y="124"/>
      <point x="132" y="175" type="curve" smooth="yes"/>
      <point x="235" y="565" type="line"/>
      <point x="184" y="565" type="line"/>
    </contour>
  </outline>
</glyph>
<glyph name="pi" format="2">
  <advance width="828"/>
  <unicode hex="03C0"/>
  <outline>
    <contour>
      <point x="243" y="0" type="line"/>
      <point x="372" y="478" type="line"/>
      <point x="330" y="478" type="line"/>
      <point x="258" y="230"/>
      <point x="234" y="202"/>
      <point x="180" y="0" type="curve"/>
    </contour>
    <contour>
      <point x="810" y="471" type="line"/>
      <point x="822" y="512" type="line"/>
      <point x="343" y="512" type="line" smooth="yes"/>
      <point x="194" y="512"/>
      <point x="105" y="450"/>
      <point x="43" y="314" type="curve"/>
      <point x="83" y="305" type="line"/>
      <point x="139" y="435"/>
      <point x="210" y="471"/>
      <point x="310" y="471" type="curve" smooth="yes"/>
    </contour>
    <contour>
      <point x="627" y="478" type="line"/>
      <point x="584" y="478" type="line"/>
      <point x="489" y="174"/>
      <point x="461" y="125"/>
      <point x="461" y="73" type="curve" smooth="yes"/>
      <point x="461" y="13"/>
      <point x="505" y="-10"/>
      <point x="561" y="-10" type="curve" smooth="yes"/>
      <point x="622" y="-10"/>
      <point x="667" y="12"/>
      <point x="703" y="106" type="curve"/>
      <point x="661" y="120" type="line"/>
      <point x="640" y="65"/>
      <point x="615" y="32"/>
      <point x="570" y="32" type="curve" smooth="yes"/>
      <point x="535" y="32"/>
      <point x="522" y="49"/>
      <point x="522" y="76" type="curve"/>
      <point x="522" y="102"/>
      <point x="530" y="126"/>
      <point x="538" y="157" type="curve" smooth="yes"/>
    </contour>
  </outline>
</glyph>
<glyph name="daggerdbl" format="2">
  <advance width="511"/>
  <unicode hex="2021"/>
  <outline>
    <contour>
      <point x="3" y="184" type="line"/>
      <point x="35" y="184" type="line"/>
      <point x="227" y="187" type="line"/>
      <point x="234" y="187" type="line"/>
      <point x="423" y="184" type="line"/>
      <point x="454" y="184" type="line"/>
      <point x="471" y="236" type="line"/>
      <point x="439" y="236" type="line"/>
      <point x="241" y="208" type="line"/>
      <point x="233" y="208" type="line"/>
      <point x="51" y="236" type="line"/>
      <point x="19" y="236" type="line"/>
    </contour>
    <contour>
      <point x="224" y="340" type="line"/>
      <point x="236" y="276"/>
      <point x="232" y="245"/>
      <point x="217" y="191" type="curve" smooth="yes"/>
      <point x="193" y="102"/>
      <point x="161" y="76"/>
      <point x="148" y="27" type="curve" smooth="yes"/>
      <point x="135" y="-20" type="line"/>
      <point x="218" y="-20" type="line"/>
      <point x="231" y="27" type="line" smooth="yes"/>
      <point x="243" y="76"/>
      <point x="226" y="102"/>
      <point x="248" y="191" type="curve" smooth="yes"/>
      <point x="263" y="247"/>
      <point x="276" y="269"/>
      <point x="317" y="331" type="curve"/>
      <point x="323" y="349" type="line"/>
      <point x="311" y="413"/>
      <point x="314" y="446"/>
      <point x="329" y="499" type="curve" smooth="yes"/>
      <point x="353" y="588"/>
      <point x="385" y="614"/>
      <point x="398" y="663" type="curve" smooth="yes"/>
      <point x="411" y="710" type="line"/>
      <point x="328" y="710" type="line"/>
      <point x="316" y="668" type="line" smooth="yes"/>
      <point x="303" y="619"/>
      <point x="321" y="593"/>
      <point x="298" y="499" type="curve" smooth="yes"/>
      <point x="282" y="444"/>
      <point x="271" y="421"/>
      <point x="230" y="359" type="curve"/>
    </contour>
    <contour>
      <point x="75" y="455" type="line"/>
      <point x="107" y="455" type="line"/>
      <point x="305" y="482" type="line"/>
      <point x="313" y="482" type="line"/>
      <point x="495" y="455" type="line"/>
      <point x="527" y="455" type="line"/>
      <point x="543" y="506" type="line"/>
      <point x="511" y="506" type="line"/>
      <point x="319" y="503" type="line"/>
      <point x="311" y="503" type="line"/>
      <point x="123" y="506" type="line"/>
      <point x="92" y="506" type="line"/>
    </contour>
  </outline>
</glyph>
<glyph name="franc" format="2">
  <advance width="594"/>
  <unicode hex="20A3"/>
  <outline>
    <contour>
      <point x="-32" y="0" type="line"/>
      <point x="241" y="0" type="line"/>
      <point x="254" y="45" type="line"/>
      <point x="233" y="45" type="line" smooth="yes"/>
      <point x="182" y="45"/>
      <point x="132" y="48"/>
      <point x="134" y="55" type="curve" smooth="yes"/>
      <point x="298" y="674" type="line"/>
      <point x="446" y="674" type="line" smooth="yes"/>
      <point x="537" y="674"/>
      <point x="571" y="665"/>
      <point x="567" y="629" type="curve" smooth="yes"/>
      <point x="556" y="525" type="line"/>
      <point x="599" y="525" type="line"/>
      <point x="644" y="710" type="line"/>
      <point x="157" y="710" type="line"/>
      <point x="144" y="666" type="line"/>
      <point x="156" y="666" type="line" smooth="yes"/>
      <point x="208" y="666"/>
      <point x="246" y="659"/>
      <point x="238" y="630" type="curve" smooth="yes"/>
      <point x="93" y="80" type="line" smooth="yes"/>
      <point x="86" y="51"/>
      <point x="44" y="44"/>
      <point x="-8" y="44" type="curve" smooth="yes"/>
      <point x="-20" y="44" type="line"/>
    </contour>
    <contour>
      <point x="213" y="415" type="curve"/>
      <point x="204" y="386" type="line"/>
      <point x="291" y="383"/>
      <point x="377" y="379"/>
      <point x="464" y="375" type="curve"/>
      <point x="479" y="424" type="line"/>
      <point x="391" y="421"/>
      <point x="302" y="418"/>
    </contour>
    <contour>
      <point x="29" y="240" type="line"/>
      <point x="19" y="204" type="line"/>
      <point x="382" y="204" type="line"/>
      <point x="392" y="240" type="line"/>
    </contour>
  </outline>
</glyph>
<glyph name="uni20B8" format="2">
  <advance width="594"/>
  <unicode hex="20B8"/>
  <outline>
    <contour>
      <point x="198" y="72" type="line" smooth="yes"/>
      <point x="191" y="43"/>
      <point x="145" y="36"/>
      <point x="93" y="36" type="curve" smooth="yes"/>
      <point x="72" y="36" type="line"/>
      <point x="62" y="0" type="line"/>
      <point x="343" y="0" type="line"/>
      <point x="353" y="36" type="line"/>
      <point x="332" y="36" type="line" smooth="yes"/>
      <point x="280" y="36"/>
      <point x="238" y="43"/>
      <point x="246" y="72" type="curve" smooth="yes"/>
      <point x="357" y="502" type="line"/>
      <point x="400" y="502" type="line" smooth="yes"/>
      <point x="491" y="502"/>
      <point x="523" y="485"/>
      <point x="517" y="449" type="curve" smooth="yes"/>
      <point x="500" y="327" type="line"/>
      <point x="536" y="327" type="line"/>
      <point x="593" y="538" type="line"/>
      <point x="95" y="538" type="line"/>
      <point x="39" y="327" type="line"/>
      <point x="75" y="327" type="line"/>
      <point x="120" y="449" type="line" smooth="yes"/>
      <point x="134" y="485"/>
      <point x="176" y="502"/>
      <point x="266" y="502" type="curve" smooth="yes"/>
      <point x="310" y="502" type="line"/>
    </contour>
    <contour>
      <point x="146" y="729" type="line"/>
      <point x="136" y="693" type="line"/>
      <point x="632" y="693" type="line"/>
      <point x="643" y="729" type="line"/>
    </contour>
  </outline>
</glyph>
<glyph name="manat" format="2">
  <advance width="594"/>
  <unicode hex="20BC"/>
  <outline>
    <contour>
      <point x="394" y="760" type="line"/>
      <point x="225" y="124" type="line"/>
      <point x="265" y="124" type="line"/>
      <point x="433" y="760" type="line"/>
    </contour>
    <contour>
      <point x="369" y="604" type="curve" smooth="yes"/>
      <point x="161" y="604"/>
      <point x="99" y="462"/>
      <point x="-34" y="0" type="curve"/>
      <point x="26" y="0" type="line"/>
      <point x="154" y="450"/>
      <point x="191" y="571"/>
      <point x="368" y="571" type="curve" smooth="yes"/>
      <point x="536" y="571"/>
      <point x="507" y="452"/>
      <point x="401" y="0" type="curve"/>
      <point x="461" y="0" type="line"/>
      <point x="573" y="459"/>
      <point x="572" y="604"/>
    </contour>
  </outline>
</glyph>
<glyph name="servicemark" format="2">
  <advance width="1103"/>
  <unicode hex="2120"/>
  <outline>
    <contour>
      <point x="490" y="302" type="line"/>
      <point x="621" y="302" type="line"/>
      <point x="630" y="333" type="line"/>
      <point x="628" y="333" type="line" smooth="yes"/>
      <point x="615" y="333"/>
      <point x="590" y="335"/>
      <point x="591" y="338" type="curve" smooth="yes"/>
      <point x="687" y="705" type="line"/>
      <point x="682" y="706" type="line"/>
      <point x="728" y="301" type="line"/>
      <point x="752" y="301" type="line"/>
      <point x="1012" y="707" type="line"/>
      <point x="1001" y="701" type="line"/>
      <point x="906" y="338" type="line" smooth="yes"/>
      <point x="905" y="335"/>
      <point x="883" y="333"/>
      <point x="867" y="333" type="curve" smooth="yes"/>
      <point x="863" y="333" type="line"/>
      <point x="854" y="302" type="line"/>
      <point x="995" y="302" type="line"/>
      <point x="1004" y="333" type="line"/>
      <point x="993" y="333" type="line" smooth="yes"/>
      <point x="966" y="333"/>
      <point x="947" y="337"/>
      <point x="952" y="352" type="curve" smooth="yes"/>
      <point x="1031" y="660" type="line" smooth="yes"/>
      <point x="1035" y="676"/>
      <point x="1056" y="680"/>
      <point x="1083" y="680" type="curve" smooth="yes"/>
      <point x="1094" y="680" type="line"/>
      <point x="1102" y="710" type="line"/>
      <point x="973" y="710" type="line"/>
      <point x="747" y="349" type="line"/>
      <point x="758" y="354" type="line"/>
      <point x="721" y="710" type="line"/>
      <point x="597" y="710" type="line"/>
      <point x="589" y="680" type="line"/>
      <point x="598" y="680" type="line" smooth="yes"/>
      <point x="625" y="680"/>
      <point x="644" y="676"/>
      <point x="639" y="660" type="curve" smooth="yes"/>
      <point x="560" y="352" type="line" smooth="yes"/>
      <point x="556" y="337"/>
      <point x="535" y="333"/>
      <point x="508" y="333" type="curve" smooth="yes"/>
      <point x="499" y="333" type="line"/>
    </contour>
    <contour>
      <point x="175" y="612" type="curve" smooth="yes"/>
      <point x="175" y="551"/>
      <point x="220" y="527"/>
      <point x="286" y="501" type="curve" smooth="yes"/>
      <point x="338" y="482"/>
      <point x="393" y="463"/>
      <point x="393" y="405" type="curve" smooth="yes"/>
      <point x="393" y="348"/>
      <point x="362" y="323"/>
      <point x="296" y="323" type="curve" smooth="yes"/>
      <point x="230" y="323"/>
      <point x="175" y="355"/>
      <point x="171" y="448" type="curve"/>
      <point x="129" y="448" type="line"/>
      <point x="91" y="303" type="line"/>
      <point x="125" y="303" type="line"/>
      <point x="155" y="399" type="line"/>
      <point x="147" y="425" type="line"/>
      <point x="156" y="348"/>
      <point x="201" y="296"/>
      <point x="294" y="296" type="curve" smooth="yes"/>
      <point x="393" y="296"/>
      <point x="441" y="343"/>
      <point x="441" y="411" type="curve" smooth="yes"/>
      <point x="441" y="479"/>
      <point x="376" y="506"/>
      <point x="315" y="529" type="curve" smooth="yes"/>
      <point x="256" y="552"/>
      <point x="221" y="567"/>
      <point x="221" y="618" type="curve" smooth="yes"/>
      <point x="221" y="660"/>
      <point x="244" y="689"/>
      <point x="311" y="689" type="curve" smooth="yes"/>
      <point x="395" y="689"/>
      <point x="410" y="655"/>
      <point x="418" y="579" type="curve"/>
      <point x="458" y="579" type="line"/>
      <point x="492" y="710" type="line"/>
      <point x="460" y="710" type="line"/>
      <point x="433" y="627" type="line"/>
      <point x="437" y="619" type="line"/>
      <point x="429" y="678"/>
      <point x="398" y="717"/>
      <point x="313" y="717" type="curve" smooth="yes"/>
      <point x="215" y="717"/>
      <point x="175" y="666"/>
    </contour>
  </outline>
</glyph>
<glyph name="zero.den" format="2">
  <advance width="519"/>
  <unicode hex="E402"/>
  <outline>
    <contour>
      <point x="353" y="188" type="curve" smooth="yes"/>
      <point x="322" y="70"/>
      <point x="278" y="32"/>
      <point x="214" y="32" type="curve" smooth="yes"/>
      <point x="167" y="32"/>
      <point x="129" y="55"/>
      <point x="129" y="130" type="curve" smooth="yes"/>
      <point x="129" y="156"/>
      <point x="134" y="188"/>
      <point x="144" y="227" type="curve" smooth="yes"/>
      <point x="175" y="345"/>
      <point x="219" y="383"/>
      <point x="283" y="383" type="curve" smooth="yes"/>
      <point x="330" y="383"/>
      <point x="369" y="360"/>
      <point x="369" y="285" type="curve" smooth="yes"/>
      <point x="369" y="259"/>
      <point x="363" y="227"/>
    </contour>
    <contour>
      <point x="421" y="270" type="curve" smooth="yes"/>
      <point x="421" y="370"/>
      <point x="364" y="421"/>
      <point x="283" y="421" type="curve"/>
      <point x="159" y="421"/>
      <point x="76" y="290"/>
      <point x="76" y="145" type="curve" smooth="yes"/>
      <point x="76" y="46"/>
      <point x="133" y="-6"/>
      <point x="214" y="-6" type="curve"/>
      <point x="338" y="-6"/>
      <point x="421" y="125"/>
    </contour>
  </outline>
</glyph>
<glyph name="five.den" format="2">
  <advance width="514"/>
  <unicode hex="E407"/>
  <outline>
    <contour>
      <point x="228" y="-6" type="curve" smooth="yes"/>
      <point x="132" y="-6"/>
      <point x="85" y="43"/>
      <point x="65" y="94" type="curve"/>
      <point x="97" y="105" type="line"/>
      <point x="111" y="72"/>
      <point x="140" y="19"/>
      <point x="226" y="19" type="curve" smooth="yes"/>
      <point x="301" y="19"/>
      <point x="351" y="60"/>
      <point x="351" y="151" type="curve" smooth="yes"/>
      <point x="351" y="215"/>
      <point x="322" y="248"/>
      <point x="267" y="248" type="curve" smooth="yes"/>
      <point x="203" y="248"/>
      <point x="173" y="219"/>
      <point x="148" y="195" type="curve"/>
      <point x="117" y="195" type="line"/>
      <point x="175" y="415" type="line"/>
      <point x="426" y="415" type="line"/>
      <point x="409" y="384" type="line"/>
      <point x="179" y="384" type="line"/>
      <point x="202" y="401" type="line"/>
      <point x="153" y="216" type="line"/>
      <point x="139" y="186"/>
      <point x="138" y="203"/>
      <point x="139" y="213" type="curve"/>
      <point x="176" y="251"/>
      <point x="213" y="273"/>
      <point x="267" y="273" type="curve" smooth="yes"/>
      <point x="345" y="273"/>
      <point x="399" y="232"/>
      <point x="399" y="152" type="curve" smooth="yes"/>
      <point x="399" y="52"/>
      <point x="321" y="-6"/>
    </contour>
  </outline>
</glyph>
<glyph name="six.den" format="2">
  <advance width="513"/>
  <unicode hex="E408"/>
  <outline>
    <contour>
      <point x="228" y="-6" type="curve" smooth="yes"/>
      <point x="136" y="-6"/>
      <point x="80" y="43"/>
      <point x="80" y="139" type="curve" smooth="yes"/>
      <point x="80" y="287"/>
      <point x="184" y="419"/>
      <point x="412" y="436" type="curve"/>
      <point x="414" y="411" type="line"/>
      <point x="213" y="389"/>
      <point x="124" y="281"/>
      <point x="124" y="140" type="curve" smooth="yes"/>
      <point x="124" y="67"/>
      <point x="156" y="19"/>
      <point x="228" y="19" type="curve" smooth="yes"/>
      <point x="317" y="19"/>
      <point x="354" y="89"/>
      <point x="354" y="159" type="curve" smooth="yes"/>
      <point x="354" y="220"/>
      <point x="328" y="254"/>
      <point x="275" y="254" type="curve" smooth="yes"/>
      <point x="204" y="254"/>
      <point x="159" y="205"/>
      <point x="116" y="143" type="curve"/>
      <point x="116" y="167" type="line"/>
      <point x="150" y="223"/>
      <point x="203" y="279"/>
      <point x="279" y="279" type="curve" smooth="yes"/>
      <point x="350" y="279"/>
      <point x="403" y="241"/>
      <point x="403" y="153" type="curve" smooth="yes"/>
      <point x="403" y="77"/>
      <point x="336" y="-6"/>
    </contour>
  </outline>
</glyph>
<glyph name="fi" format="2">
  <advance width="720"/>
  <unicode hex="FB01"/>
  <outline>
    <contour>
      <point x="626" y="699" type="curve" smooth="yes"/>
      <point x="658" y="699"/>
      <point x="684" y="712"/>
      <point x="684" y="751" type="curve" smooth="yes"/>
      <point x="684" y="790"/>
      <point x="658" y="804"/>
      <point x="626" y="804" type="curve" smooth="yes"/>
      <point x="592" y="804"/>
      <point x="568" y="790"/>
      <point x="568" y="751" type="curve" smooth="yes"/>
      <point x="568" y="712"/>
      <point x="592" y="699"/>
    </contour>
    <contour>
      <point x="81" y="565" type="line"/>
      <point x="73" y="526" type="line"/>
      <point x="433" y="526" type="line" smooth="yes"/>
      <point x="507" y="526"/>
      <point x="571" y="518"/>
      <point x="563" y="483" type="curve" smooth="yes"/>
      <point x="488" y="161" type="line" smooth="yes"/>
      <point x="473" y="119"/>
      <point x="464" y="83"/>
      <point x="464" y="54" type="curve" smooth="yes"/>
      <point x="464" y="19"/>
      <point x="492" y="0"/>
      <point x="534" y="0" type="curve"/>
      <point x="566" y="0"/>
      <point x="598" y="0"/>
      <point x="631" y="0" type="curve"/>
      <point x="639" y="40" type="line"/>
      <point x="608" y="40"/>
      <point x="580" y="40"/>
      <point x="549" y="40" type="curve" smooth="yes"/>
      <point x="527" y="40"/>
      <point x="514" y="48"/>
      <point x="514" y="67" type="curve" smooth="yes"/>
      <point x="514" y="80"/>
      <point x="515" y="89"/>
      <point x="528" y="127" type="curve" smooth="yes"/>
      <point x="635" y="565" type="line"/>
    </contour>
    <contour>
      <point x="373" y="748" type="curve" smooth="yes"/>
      <point x="404" y="748"/>
      <point x="424" y="745"/>
      <point x="452" y="739" type="curve"/>
      <point x="462" y="781" type="line"/>
      <point x="436" y="787"/>
      <point x="417" y="790"/>
      <point x="377" y="790" type="curve" smooth="yes"/>
      <point x="290" y="790"/>
      <point x="243" y="757"/>
      <point x="225" y="665" type="curve" smooth="yes"/>
      <point x="56" y="-223" type="line"/>
      <point x="99" y="-223" type="line"/>
      <point x="279" y="660" type="line" smooth="yes"/>
      <point x="294" y="730"/>
      <point x="320" y="748"/>
    </contour>
  </outline>
</glyph>
<glyph name="AE.alt" format="2">
  <advance width="1123"/>
  <outline>
    <contour>
      <point x="256" y="289" type="line"/>
      <point x="229" y="251" type="line"/>
      <point x="596" y="251" type="line"/>
      <point x="588" y="289" type="line"/>
    </contour>
    <contour>
      <point x="-58" y="0" type="line"/>
      <point x="182" y="0" type="line"/>
      <point x="194" y="44" type="line"/>
      <point x="184" y="44" type="line" smooth="yes"/>
      <point x="124" y="44"/>
      <point x="92" y="54"/>
      <point x="95" y="67" type="curve"/>
      <point x="640" y="669" type="line"/>
      <point x="679" y="669" type="line"/>
      <point x="524" y="80" type="line"/>
      <point x="516" y="51"/>
      <point x="476" y="44"/>
      <point x="424" y="44" type="curve" smooth="yes"/>
      <point x="412" y="44" type="line"/>
      <point x="400" y="0" type="line"/>
      <point x="993" y="0" type="line"/>
      <point x="1049" y="221" type="line"/>
      <point x="1001" y="221" type="line"/>
      <point x="950" y="84" type="line" smooth="yes"/>
      <point x="937" y="48"/>
      <point x="896" y="39"/>
      <point x="805" y="39" type="curve" smooth="yes"/>
      <point x="562" y="39" type="line"/>
      <point x="729" y="671" type="line"/>
      <point x="935" y="671" type="line" smooth="yes"/>
      <point x="1026" y="671"/>
      <point x="1058" y="662"/>
      <point x="1054" y="626" type="curve" smooth="yes"/>
      <point x="1041" y="514" type="line"/>
      <point x="1087" y="514" type="line"/>
      <point x="1133" y="710" type="line"/>
      <point x="470" y="710" type="line"/>
      <point x="458" y="666" type="line"/>
      <point x="470" y="666" type="line" smooth="yes"/>
      <point x="522" y="666"/>
      <point x="558" y="659"/>
      <point x="550" y="630" type="curve"/>
      <point x="73" y="108" type="line" smooth="yes"/>
      <point x="30" y="61"/>
      <point x="4" y="44"/>
      <point x="-39" y="44" type="curve" smooth="yes"/>
      <point x="-46" y="44" type="line"/>
    </contour>
    <contour>
      <point x="625" y="382" type="line"/>
      <point x="615" y="343" type="line"/>
      <point x="817" y="343" type="line" smooth="yes"/>
      <point x="848" y="343"/>
      <point x="853" y="320"/>
      <point x="845" y="286" type="curve" smooth="yes"/>
      <point x="840" y="264" type="line"/>
      <point x="886" y="264" type="line"/>
      <point x="939" y="462" type="line"/>
      <point x="892" y="462" type="line"/>
      <point x="887" y="443" type="line" smooth="yes"/>
      <point x="877" y="408"/>
      <point x="863" y="382"/>
      <point x="832" y="382" type="curve" smooth="yes"/>
    </contour>
  </outline>
</glyph>
<glyph name="acute.ucpl" format="2">
  <advance width="530"/>
  <anchor x="207" y="694" name="_top"/>
  <outline>
    <contour>
      <point x="274" y="912" type="curve" smooth="yes"/>
      <point x="241" y="812" type="line"/>
      <point x="241" y="793" type="line"/>
      <point x="263" y="793" type="line"/>
      <point x="344" y="879" type="line" smooth="yes"/>
      <point x="367" y="902"/>
      <point x="383" y="923"/>
      <point x="383" y="944" type="curve" smooth="yes"/>
      <point x="383" y="967"/>
      <point x="365" y="983"/>
      <point x="339" y="983" type="curve" smooth="yes"/>
      <point x="303" y="983"/>
      <point x="288" y="952"/>
    </contour>
  </outline>
</glyph>
<glyph name="braceleft.uc" format="2">
  <advance width="433"/>
  <outline>
    <contour>
      <point x="46" y="10" type="curve" smooth="yes"/>
      <point x="46" y="-66"/>
      <point x="113" y="-99"/>
      <point x="214" y="-99" type="curve" smooth="yes"/>
      <point x="230" y="-99"/>
      <point x="255" y="-100"/>
      <point x="276" y="-98" type="curve"/>
      <point x="297" y="-69" type="line"/>
      <point x="278" y="-71"/>
      <point x="254" y="-69"/>
      <point x="237" y="-69" type="curve" smooth="yes"/>
      <point x="141" y="-69"/>
      <point x="102" y="-44"/>
      <point x="102" y="10" type="curve" smooth="yes"/>
      <point x="102" y="116"/>
      <point x="313" y="227"/>
      <point x="313" y="273" type="curve" smooth="yes"/>
      <point x="313" y="299"/>
      <point x="282" y="298"/>
      <point x="129" y="329" type="curve"/>
      <point x="132" y="340" type="line"/>
      <point x="312" y="372"/>
      <point x="336" y="365"/>
      <point x="336" y="398" type="curve" smooth="yes"/>
      <point x="336" y="441"/>
      <point x="254" y="532"/>
      <point x="254" y="611" type="curve" smooth="yes"/>
      <point x="254" y="683"/>
      <point x="309" y="718"/>
      <point x="416" y="718" type="curve" smooth="yes"/>
      <point x="438" y="718"/>
      <point x="461" y="718"/>
      <point x="488" y="716" type="curve"/>
      <point x="482" y="746" type="line"/>
      <point x="452" y="749"/>
      <point x="426" y="749"/>
      <point x="400" y="749" type="curve" smooth="yes"/>
      <point x="289" y="749"/>
      <point x="201" y="714"/>
      <point x="201" y="610" type="curve" smooth="yes"/>
      <point x="201" y="538"/>
      <point x="264" y="460"/>
      <point x="294" y="390" type="curve"/>
      <point x="304" y="397" type="line"/>
      <point x="97" y="356" type="line"/>
      <point x="86" y="318" type="line"/>
      <point x="279" y="267" type="line"/>
      <point x="279" y="278" type="line"/>
      <point x="191" y="193"/>
      <point x="46" y="103"/>
    </contour>
  </outline>
</glyph>
<glyph name="caron.alt" format="2">
  <advance width="530"/>
  <anchor x="102" y="574" name="_right"/>
  <outline>
    <contour>
      <point x="225" y="517" type="line"/>
      <point x="182" y="517" type="line"/>
      <point x="188" y="541" type="line"/>
      <point x="236" y="710" type="line"/>
      <point x="318" y="710" type="line"/>
    </contour>
  </outline>
</glyph>
<glyph name="cent.altprop" format="2">
  <advance width="610"/>
  <outline>
    <contour>
      <point x="175" y="-166" type="line"/>
      <point x="217" y="-166" type="line"/>
      <point x="258" y="1" type="line"/>
      <point x="217" y="-2" type="line"/>
    </contour>
    <contour>
      <point x="360" y="563" type="line"/>
      <point x="401" y="564" type="line"/>
      <point x="437" y="703" type="line"/>
      <point x="396" y="703" type="line"/>
    </contour>
    <contour>
      <point x="370" y="538" type="curve" smooth="yes"/>
      <point x="474" y="538"/>
      <point x="525" y="507"/>
      <point x="549" y="489" type="curve"/>
      <point x="552" y="501"/>
      <point x="547" y="535"/>
      <point x="521" y="548" type="curve"/>
      <point x="483" y="408" type="line"/>
      <point x="543" y="408" type="line"/>
      <point x="577" y="528" type="line"/>
      <point x="554" y="542"/>
      <point x="495" y="576"/>
      <point x="369" y="576" type="curve" smooth="yes"/>
      <point x="147" y="576"/>
      <point x="35" y="397"/>
      <point x="35" y="213" type="curve" smooth="yes"/>
      <point x="35" y="85"/>
      <point x="122" y="-13"/>
      <point x="280" y="-13" type="curve" smooth="yes"/>
      <point x="393" y="-13"/>
      <point x="469" y="39"/>
      <point x="522" y="125" type="curve"/>
      <point x="485" y="146" type="line"/>
      <point x="440" y="77"/>
      <point x="386" y="25"/>
      <point x="284" y="25" type="curve" smooth="yes"/>
      <point x="150" y="25"/>
      <point x="88" y="105"/>
      <point x="88" y="216" type="curve" smooth="yes"/>
      <point x="88" y="361"/>
      <point x="160" y="538"/>
    </contour>
  </outline>
</glyph>
<glyph name="circumflex_grave" format="2">
  <advance width="519"/>
  <anchor x="252" y="564" name="_top"/>
  <outline>
    <contour>
      <point x="479" y="919" type="curve" smooth="yes"/>
      <point x="524" y="820" type="line"/>
      <point x="519" y="801" type="line"/>
      <point x="499" y="801" type="line"/>
      <point x="412" y="898" type="line" smooth="yes"/>
      <point x="393" y="920"/>
      <point x="377" y="937"/>
      <point x="377" y="957" type="curve" smooth="yes"/>
      <point x="377" y="976"/>
      <point x="397" y="988"/>
      <point x="419" y="988" type="curve" smooth="yes"/>
      <point x="452" y="988"/>
      <point x="459" y="967"/>
    </contour>
    <component base="circumflex"/>
  </outline>
</glyph>
<glyph name="commaaccent" format="2">
  <advance width="552"/>
  <anchor x="261" y="33" name="_bottom"/>
  <outline>
    <contour>
      <point x="64" y="-332" type="line"/>
      <point x="195" y="-321"/>
      <point x="267" y="-249"/>
      <point x="267" y="-158" type="curve" smooth="yes"/>
      <point x="267" y="-115"/>
      <point x="240" y="-98"/>
      <point x="192" y="-98" type="curve" smooth="yes"/>
      <point x="145" y="-98"/>
      <point x="119" y="-114"/>
      <point x="119" y="-147" type="curve" smooth="yes"/>
      <point x="119" y="-174"/>
      <point x="143" y="-189"/>
      <point x="182" y="-189" type="curve" smooth="yes"/>
      <point x="203" y="-189"/>
      <point x="221" y="-183"/>
      <point x="238" y="-175" type="curve"/>
      <point x="233" y="-161"/>
      <point x="226" y="-160"/>
      <point x="225" y="-169" type="curve"/>
      <point x="209" y="-251"/>
      <point x="157" y="-282"/>
      <point x="50" y="-289" type="curve"/>
    </contour>
  </outline>
</glyph>
<glyph name="dblgrave.uc" format="2">
  <advance width="530"/>
  <anchor x="308" y="734" name="_top"/>
  <outline>
    <contour>
      <point x="418" y="917" type="line" smooth="yes"/>
      <point x="405" y="955"/>
      <point x="396" y="983"/>
      <point x="362" y="983" type="curve" smooth="yes"/>
      <point x="340" y="983"/>
      <point x="321" y="967"/>
      <point x="321" y="951" type="curve" smooth="yes"/>
      <point x="321" y="928"/>
      <point x="332" y="916"/>
      <point x="360" y="884" type="curve" smooth="yes"/>
      <point x="439" y="793" type="line"/>
      <point x="461" y="793" type="line"/>
      <point x="455" y="811" type="line"/>
    </contour>
    <contour>
      <point x="230" y="917" type="line" smooth="yes"/>
      <point x="217" y="955"/>
      <point x="209" y="983"/>
      <point x="174" y="983" type="curve" smooth="yes"/>
      <point x="152" y="983"/>
      <point x="133" y="967"/>
      <point x="133" y="951" type="curve" smooth="yes"/>
      <point x="133" y="928"/>
      <point x="144" y="916"/>
      <point x="173" y="884" type="curve" smooth="yes"/>
      <point x="251" y="793" type="line"/>
      <point x="273" y="793" type="line"/>
      <point x="267" y="811" type="line"/>
    </contour>
  </outline>
</glyph>
<glyph name="dong.proportional" format="2">
  <advance width="676"/>
  <outline>
    <contour>
      <point x="227" y="-10" type="curve" smooth="yes"/>
      <point x="312" y="-10"/>
      <point x="391" y="47"/>
      <point x="474" y="131" type="curve"/>
      <point x="479" y="178" type="line"/>
      <point x="402" y="102"/>
      <point x="318" y="30"/>
      <point x="228" y="30" type="curve" smooth="yes"/>
      <point x="152" y="30"/>
      <point x="103" y="80"/>
      <point x="103" y="190" type="curve" smooth="yes"/>
      <point x="103" y="323"/>
      <point x="165" y="538"/>
      <point x="340" y="538" type="curve" smooth="yes"/>
      <point x="445" y="538"/>
      <point x="502" y="461"/>
      <point x="526" y="365" type="curve"/>
      <point x="546" y="397" type="line"/>
      <point x="515" y="516"/>
      <point x="447" y="578"/>
      <point x="342" y="578" type="curve" smooth="yes"/>
      <point x="143" y="578"/>
      <point x="47" y="357"/>
      <point x="47" y="190" type="curve" smooth="yes"/>
      <point x="47" y="60"/>
      <point x="113" y="-10"/>
    </contour>
    <contour>
      <point x="525" y="0" type="curve" smooth="yes"/>
      <point x="553" y="0"/>
      <point x="580" y="0"/>
      <point x="608" y="0" type="curve"/>
      <point x="616" y="40" type="line"/>
      <point x="588" y="40"/>
      <point x="560" y="40"/>
      <point x="533" y="40" type="curve" smooth="yes"/>
      <point x="511" y="40"/>
      <point x="499" y="46"/>
      <point x="499" y="66" type="curve" smooth="yes"/>
      <point x="499" y="80"/>
      <point x="509" y="131"/>
      <point x="539" y="247" type="curve" smooth="yes"/>
      <point x="679" y="780" type="line"/>
      <point x="628" y="780" type="line"/>
      <point x="464" y="152" type="line"/>
      <point x="459" y="141" type="line"/>
      <point x="455" y="98"/>
      <point x="451" y="62"/>
      <point x="451" y="52" type="curve" smooth="yes"/>
      <point x="451" y="16"/>
      <point x="482" y="0"/>
    </contour>
    <contour>
      <point x="17" y="-135" type="line"/>
      <point x="5" y="-171" type="line"/>
      <point x="536" y="-171" type="line"/>
      <point x="548" y="-135" type="line"/>
    </contour>
    <contour>
      <point x="337" y="705" type="line"/>
      <point x="327" y="670" type="line"/>
      <point x="738" y="670" type="line"/>
      <point x="748" y="705" type="line"/>
    </contour>
  </outline>
</glyph>
<glyph name="f_f_j" format="2">
  <advance width="1058"/>
  <outline>
    <contour>
      <point x="81" y="565" type="line"/>
      <point x="73" y="526" type="line"/>
      <point x="444" y="526" type="line"/>
      <point x="452" y="565" type="line"/>
    </contour>
    <contour>
      <point x="99" y="-223" type="line"/>
      <point x="276" y="645" type="line" smooth="yes"/>
      <point x="290" y="716"/>
      <point x="318" y="733"/>
      <point x="380" y="733" type="curve" smooth="yes"/>
      <point x="413" y="733"/>
      <point x="444" y="727"/>
      <point x="471" y="722" type="curve"/>
      <point x="480" y="764" type="line"/>
      <point x="459" y="769"/>
      <point x="425" y="775"/>
      <point x="384" y="775" type="curve" smooth="yes"/>
      <point x="291" y="775"/>
      <point x="240" y="740"/>
      <point x="222" y="650" type="curve" smooth="yes"/>
      <point x="56" y="-223" type="line"/>
    </contour>
    <contour>
      <point x="454" y="-223" type="line"/>
      <point x="634" y="660" type="line" smooth="yes"/>
      <point x="649" y="730"/>
      <point x="675" y="748"/>
      <point x="729" y="748" type="curve" smooth="yes"/>
      <point x="760" y="748"/>
      <point x="779" y="745"/>
      <point x="807" y="739" type="curve"/>
      <point x="817" y="781" type="line"/>
      <point x="792" y="787"/>
      <point x="772" y="790"/>
      <point x="733" y="790" type="curve" smooth="yes"/>
      <point x="645" y="790"/>
      <point x="598" y="757"/>
      <point x="580" y="665" type="curve" smooth="yes"/>
      <point x="412" y="-223" type="line"/>
    </contour>
    <contour>
      <point x="978" y="699" type="curve" smooth="yes"/>
      <point x="1009" y="699"/>
      <point x="1036" y="712"/>
      <point x="1036" y="751" type="curve" smooth="yes"/>
      <point x="1036" y="790"/>
      <point x="1009" y="804"/>
      <point x="978" y="804" type="curve" smooth="yes"/>
      <point x="943" y="804"/>
      <point x="920" y="790"/>
      <point x="920" y="751" type="curve" smooth="yes"/>
      <point x="920" y="712"/>
      <point x="943" y="699"/>
    </contour>
    <contour>
      <point x="436" y="565" type="line"/>
      <point x="428" y="526" type="line"/>
      <point x="784" y="526" type="line" smooth="yes"/>
      <point x="859" y="526"/>
      <point x="923" y="518"/>
      <point x="915" y="483" type="curve" smooth="yes"/>
      <point x="789" y="-89" type="line" smooth="yes"/>
      <point x="769" y="-184"/>
      <point x="740" y="-209"/>
      <point x="681" y="-209" type="curve" smooth="yes"/>
      <point x="645" y="-209"/>
      <point x="612" y="-198"/>
      <point x="593" y="-192" type="curve"/>
      <point x="579" y="-231" type="line"/>
      <point x="597" y="-239"/>
      <point x="636" y="-250"/>
      <point x="682" y="-250" type="curve" smooth="yes"/>
      <point x="764" y="-250"/>
      <point x="812" y="-211"/>
      <point x="837" y="-100" type="curve" smooth="yes"/>
      <point x="984" y="565" type="line"/>
    </contour>
  </outline>
</glyph>
<glyph name="fi.alt" format="2">
  <advance width="720"/>
  <outline>
    <contour>
      <point x="56" y="-223" type="line"/>
      <point x="99" y="-223" type="line"/>
      <point x="276" y="647" type="line" smooth="yes"/>
      <point x="291" y="718"/>
      <point x="328" y="757"/>
      <point x="457" y="757" type="curve" smooth="yes"/>
      <point x="520" y="757"/>
      <point x="583" y="743"/>
      <point x="626" y="728" type="curve"/>
      <point x="620" y="746"/>
      <point x="610" y="761"/>
      <point x="600" y="777" type="curve"/>
      <point x="572" y="665" type="line"/>
      <point x="620" y="665" type="line"/>
      <point x="647" y="760" type="line"/>
      <point x="617" y="772"/>
      <point x="539" y="790"/>
      <point x="459" y="790" type="curve" smooth="yes"/>
      <point x="303" y="790"/>
      <point x="239" y="735"/>
      <point x="223" y="652" type="curve" smooth="yes"/>
    </contour>
    <contour>
      <point x="81" y="565" type="line"/>
      <point x="73" y="526" type="line"/>
      <point x="433" y="526" type="line" smooth="yes"/>
      <point x="507" y="526"/>
      <point x="571" y="518"/>
      <point x="563" y="483" type="curve" smooth="yes"/>
      <point x="488" y="161" type="line" smooth="yes"/>
      <point x="473" y="119"/>
      <point x="464" y="83"/>
      <point x="464" y="54" type="curve" smooth="yes"/>
      <point x="464" y="19"/>
      <point x="492" y="0"/>
      <point x="534" y="0" type="curve" smooth="yes"/>
      <point x="566" y="0"/>
      <point x="598" y="0"/>
      <point x="631" y="0" type="curve"/>
      <point x="639" y="40" type="line"/>
      <point x="608" y="40"/>
      <point x="580" y="40"/>
      <point x="549" y="40" type="curve" smooth="yes"/>
      <point x="527" y="40"/>
      <point x="514" y="48"/>
      <point x="514" y="67" type="curve" smooth="yes"/>
      <point x="514" y="80"/>
      <point x="515" y="89"/>
      <point x="528" y="127" type="curve" smooth="yes"/>
      <point x="635" y="565" type="line"/>
    </contour>
  </outline>
</glyph>
<glyph name="five.lintab" format="2">
  <advance width="594"/>
  <outline>
    <contour>
      <point x="245" y="-11" type="curve" smooth="yes"/>
      <point x="429" y="-11"/>
      <point x="514" y="157"/>
      <point x="514" y="304" type="curve" smooth="yes"/>
      <point x="514" y="421"/>
      <point x="444" y="472"/>
      <point x="350" y="472" type="curve" smooth="yes"/>
      <point x="263" y="472"/>
      <point x="205" y="420"/>
      <point x="142" y="328" type="curve"/>
      <point x="162" y="343" type="line"/>
      <point x="254" y="690" type="line"/>
      <point x="233" y="666" type="line"/>
      <point x="548" y="666" type="line"/>
      <point x="572" y="710" type="line"/>
      <point x="219" y="710" type="line"/>
      <point x="115" y="315" type="line"/>
      <point x="157" y="315" type="line"/>
      <point x="215" y="391"/>
      <point x="256" y="431"/>
      <point x="345" y="431" type="curve" smooth="yes"/>
      <point x="415" y="431"/>
      <point x="461" y="391"/>
      <point x="461" y="307" type="curve" smooth="yes"/>
      <point x="461" y="193"/>
      <point x="404" y="30"/>
      <point x="248" y="30" type="curve" smooth="yes"/>
      <point x="116" y="30"/>
      <point x="94" y="109"/>
      <point x="77" y="147" type="curve"/>
      <point x="25" y="132" type="line"/>
      <point x="49" y="60"/>
      <point x="104" y="-11"/>
    </contour>
  </outline>
</glyph>
<glyph name="florin.proportional" format="2">
  <advance width="509"/>
  <outline>
    <contour>
      <point x="95" y="-90" type="curve" smooth="yes"/>
      <point x="332" y="627" type="line" smooth="yes"/>
      <point x="354" y="692"/>
      <point x="375" y="750"/>
      <point x="478" y="750" type="curve" smooth="yes"/>
      <point x="531" y="750"/>
      <point x="578" y="735"/>
      <point x="604" y="727" type="curve"/>
      <point x="617" y="767" type="line"/>
      <point x="588" y="779"/>
      <point x="537" y="790"/>
      <point x="483" y="790" type="curve" smooth="yes"/>
      <point x="378" y="790"/>
      <point x="321" y="743"/>
      <point x="290" y="651" type="curve" smooth="yes"/>
      <point x="49" y="-80" type="line" smooth="yes"/>
      <point x="21" y="-170"/>
      <point x="-16" y="-210"/>
      <point x="-93" y="-210" type="curve" smooth="yes"/>
      <point x="-137" y="-210"/>
      <point x="-164" y="-201"/>
      <point x="-187" y="-194" type="curve"/>
      <point x="-198" y="-233" type="line"/>
      <point x="-174" y="-242"/>
      <point x="-135" y="-250"/>
      <point x="-98" y="-250" type="curve" smooth="yes"/>
      <point x="0" y="-250"/>
      <point x="57" y="-205"/>
    </contour>
    <contour>
      <point x="134" y="565" type="line"/>
      <point x="117" y="529" type="line"/>
      <point x="490" y="529" type="line"/>
      <point x="507" y="565" type="line"/>
    </contour>
  </outline>
</glyph>
<glyph name="g.alt" format="2">
  <advance width="708"/>
  <outline>
    <contour>
      <point x="728" y="552" type="curve"/>
      <point x="744" y="609" type="line"/>
      <point x="735" y="610"/>
      <point x="725" y="610"/>
      <point x="717" y="610" type="curve" smooth="yes"/>
      <point x="627" y="610"/>
      <point x="575" y="574"/>
      <point x="531" y="499" type="curve"/>
      <point x="541" y="496" type="line"/>
      <point x="583" y="530"/>
      <point x="619" y="552"/>
    </contour>
    <contour>
      <point x="364" y="218" type="curve" smooth="yes"/>
      <point x="273" y="218"/>
      <point x="207" y="271"/>
      <point x="207" y="368" type="curve" smooth="yes"/>
      <point x="207" y="461"/>
      <point x="251" y="538"/>
      <point x="388" y="538" type="curve" smooth="yes"/>
      <point x="479" y="538"/>
      <point x="546" y="485"/>
      <point x="546" y="387" type="curve" smooth="yes"/>
      <point x="546" y="297"/>
      <point x="502" y="218"/>
    </contour>
    <contour>
      <point x="364" y="180" type="curve" smooth="yes"/>
      <point x="520" y="180"/>
      <point x="598" y="283"/>
      <point x="598" y="388" type="curve" smooth="yes"/>
      <point x="598" y="496"/>
      <point x="515" y="576"/>
      <point x="388" y="576" type="curve" smooth="yes"/>
      <point x="232" y="576"/>
      <point x="154" y="474"/>
      <point x="154" y="367" type="curve" smooth="yes"/>
      <point x="154" y="260"/>
      <point x="237" y="180"/>
    </contour>
    <contour>
      <point x="140" y="-252" type="curve" smooth="yes"/>
      <point x="355" y="-252" type="line" smooth="yes"/>
      <point x="490" y="-252"/>
      <point x="591" y="-193"/>
      <point x="591" y="-79" type="curve" smooth="yes"/>
      <point x="591" y="-3"/>
      <point x="533" y="49"/>
      <point x="427" y="49" type="curve" smooth="yes"/>
      <point x="193" y="49" type="line" smooth="yes"/>
      <point x="134" y="49"/>
      <point x="112" y="73"/>
      <point x="112" y="104" type="curve" smooth="yes"/>
      <point x="112" y="160"/>
      <point x="173" y="197"/>
      <point x="257" y="230" type="curve"/>
      <point x="239" y="251" type="line"/>
      <point x="145" y="217"/>
      <point x="61" y="179"/>
      <point x="61" y="93" type="curve" smooth="yes"/>
      <point x="61" y="53"/>
      <point x="91" y="19"/>
      <point x="132" y="7" type="curve"/>
      <point x="127" y="3" type="line"/>
      <point x="416" y="3" type="line" smooth="yes"/>
      <point x="510" y="3"/>
      <point x="539" y="-36"/>
      <point x="539" y="-84" type="curve" smooth="yes"/>
      <point x="539" y="-160"/>
      <point x="478" y="-215"/>
      <point x="363" y="-215" type="curve" smooth="yes"/>
      <point x="146" y="-215" type="line" smooth="yes"/>
      <point x="51" y="-215"/>
      <point x="18" y="-185"/>
      <point x="18" y="-136" type="curve" smooth="yes"/>
      <point x="18" y="-73"/>
      <point x="64" y="-27"/>
      <point x="200" y="16" type="curve"/>
      <point x="181" y="32" type="line"/>
      <point x="25" y="-15"/>
      <point x="-33" y="-57"/>
      <point x="-33" y="-143" type="curve" smooth="yes"/>
      <point x="-33" y="-200"/>
      <point x="14" y="-252"/>
    </contour>
  </outline>
</glyph>
<glyph name="heart" format="2">
  <advance width="959"/>
  <outline>
    <contour>
      <point x="510" y="-10" type="line"/>
      <point x="534" y="-10" type="line"/>
      <point x="785" y="273" type="line" smooth="yes"/>
      <point x="876" y="375"/>
      <point x="927" y="434"/>
      <point x="927" y="535" type="curve" smooth="yes"/>
      <point x="927" y="632"/>
      <point x="855" y="710"/>
      <point x="732" y="710" type="curve" smooth="yes"/>
      <point x="634" y="710"/>
      <point x="563" y="657"/>
      <point x="523" y="569" type="curve"/>
      <point x="481" y="657"/>
      <point x="410" y="710"/>
      <point x="312" y="710" type="curve" smooth="yes"/>
      <point x="189" y="710"/>
      <point x="117" y="632"/>
      <point x="117" y="535" type="curve" smooth="yes"/>
      <point x="117" y="434"/>
      <point x="169" y="375"/>
      <point x="259" y="273" type="curve" smooth="yes"/>
    </contour>
  </outline>
</glyph>
<glyph name="horn" format="2">
  <advance width="530"/>
  <anchor x="275" y="444" name="_top"/>
  <outline>
    <contour>
      <point x="192" y="536" type="line"/>
      <point x="336" y="534"/>
      <point x="407" y="588"/>
      <point x="410" y="737" type="curve"/>
      <point x="359" y="737" type="line"/>
      <point x="355" y="644"/>
      <point x="336" y="565"/>
      <point x="186" y="565" type="curve"/>
    </contour>
  </outline>
</glyph>
<glyph name="minus.sup" format="2">
  <advance width="446"/>
  <outline>
    <contour>
      <point x="423" y="584" type="line"/>
      <point x="94" y="584" type="line"/>
      <point x="83" y="550" type="line"/>
      <point x="412" y="550" type="line"/>
    </contour>
  </outline>
</glyph>
<glyph name="nine.linprop" format="2">
  <advance width="594"/>
  <outline>
    <contour>
      <point x="16" y="26" type="line"/>
      <point x="237" y="31"/>
      <point x="384" y="119"/>
      <point x="456" y="261" type="curve" smooth="yes"/>
      <point x="490" y="324"/>
      <point x="507" y="400"/>
      <point x="507" y="484" type="curve" smooth="yes"/>
      <point x="507" y="636"/>
      <point x="445" y="695"/>
      <point x="336" y="695" type="curve" smooth="yes"/>
      <point x="235" y="695"/>
      <point x="173" y="637"/>
      <point x="143" y="559" type="curve" smooth="yes"/>
      <point x="130" y="523"/>
      <point x="123" y="482"/>
      <point x="123" y="441" type="curve" smooth="yes"/>
      <point x="123" y="368"/>
      <point x="159" y="304"/>
      <point x="256" y="304" type="curve" smooth="yes"/>
      <point x="367" y="304"/>
      <point x="425" y="363"/>
      <point x="522" y="511" type="curve"/>
      <point x="519" y="467" type="line"/>
      <point x="443" y="326"/>
      <point x="356" y="264"/>
      <point x="250" y="264" type="curve" smooth="yes"/>
      <point x="126" y="264"/>
      <point x="69" y="340"/>
      <point x="69" y="443" type="curve" smooth="yes"/>
      <point x="69" y="597"/>
      <point x="163" y="735"/>
      <point x="339" y="735" type="curve"/>
      <point x="477" y="735"/>
      <point x="558" y="668"/>
      <point x="558" y="489" type="curve" smooth="yes"/>
      <point x="558" y="223"/>
      <point x="381" y="-4"/>
      <point x="21" y="-15" type="curve"/>
    </contour>
  </outline>
</glyph>
<glyph name="one.lintab" format="2">
  <advance width="594"/>
  <outline>
    <contour>
      <point x="284" y="72" type="curve" smooth="yes"/>
      <point x="453" y="710" type="line"/>
      <point x="412" y="710" type="line"/>
      <point x="362" y="623"/>
      <point x="297" y="600"/>
      <point x="169" y="597" type="curve"/>
      <point x="157" y="555" type="line"/>
      <point x="276" y="555"/>
      <point x="371" y="594"/>
      <point x="405" y="665" type="curve"/>
      <point x="389" y="654" type="line"/>
      <point x="236" y="72" type="line" smooth="yes"/>
      <point x="228" y="43"/>
      <point x="184" y="36"/>
      <point x="103" y="36" type="curve" smooth="yes"/>
      <point x="37" y="36" type="line"/>
      <point x="27" y="0" type="line"/>
      <point x="438" y="0" type="line"/>
      <point x="448" y="36" type="line"/>
      <point x="408" y="36" type="line"/>
      <point x="321" y="36"/>
      <point x="277" y="43"/>
    </contour>
  </outline>
</glyph>
<glyph name="one.oldprop" format="2">
  <advance width="504"/>
  <outline>
    <contour>
      <point x="249" y="70" type="curve" smooth="yes"/>
      <point x="401" y="657" type="line"/>
      <point x="359" y="657" type="line"/>
      <point x="310" y="576"/>
      <point x="247" y="554"/>
      <point x="147" y="551" type="curve"/>
      <point x="135" y="509" type="line"/>
      <point x="225" y="509"/>
      <point x="319" y="547"/>
      <point x="353" y="615" type="curve"/>
      <point x="336" y="601" type="line"/>
      <point x="200" y="70" type="line" smooth="yes"/>
      <point x="193" y="41"/>
      <point x="148" y="34"/>
      <point x="68" y="34" type="curve" smooth="yes"/>
      <point x="31" y="34" type="line"/>
      <point x="21" y="0" type="line"/>
      <point x="382" y="0" type="line"/>
      <point x="392" y="34" type="line"/>
      <point x="373" y="34" type="line" smooth="yes"/>
      <point x="286" y="34"/>
      <point x="242" y="41"/>
    </contour>
  </outline>
</glyph>
<glyph name="peseta.proportional" format="2">
  <advance width="823"/>
  <outline>
    <contour>
      <point x="-31" y="0" type="line"/>
      <point x="142" y="0" type="line"/>
      <point x="152" y="36" type="line"/>
      <point x="133" y="36" type="line" smooth="yes"/>
      <point x="117" y="36"/>
      <point x="87" y="39"/>
      <point x="89" y="46" type="curve" smooth="yes"/>
      <point x="143" y="251" type="line"/>
      <point x="226" y="251" type="line" smooth="yes"/>
      <point x="397" y="251"/>
      <point x="522" y="354"/>
      <point x="522" y="532" type="curve" smooth="yes"/>
      <point x="522" y="632"/>
      <point x="456" y="710"/>
      <point x="306" y="710" type="curve" smooth="yes"/>
      <point x="157" y="710" type="line"/>
      <point x="146" y="674" type="line"/>
      <point x="155" y="674" type="line"/>
      <point x="185" y="674"/>
      <point x="202" y="667"/>
      <point x="195" y="638" type="curve" smooth="yes"/>
      <point x="46" y="72" type="line" smooth="yes"/>
      <point x="39" y="43"/>
      <point x="17" y="36"/>
      <point x="-13" y="36" type="curve"/>
      <point x="-21" y="36" type="line"/>
    </contour>
    <contour>
      <point x="304" y="674" type="line" smooth="yes"/>
      <point x="420" y="674"/>
      <point x="472" y="617"/>
      <point x="472" y="531" type="curve" smooth="yes"/>
      <point x="472" y="512"/>
      <point x="471" y="501"/>
      <point x="465" y="468" type="curve" smooth="yes"/>
      <point x="443" y="359"/>
      <point x="355" y="287"/>
      <point x="226" y="287" type="curve" smooth="yes"/>
      <point x="153" y="287" type="line"/>
      <point x="254" y="674" type="line"/>
    </contour>
    <contour>
      <point x="642" y="539" type="line"/>
      <point x="531" y="118" type="line" smooth="yes"/>
      <point x="523" y="81"/>
      <point x="520" y="71"/>
      <point x="520" y="51" type="curve"/>
      <point x="520" y="19"/>
      <point x="544" y="0"/>
      <point x="606" y="0" type="curve" smooth="yes"/>
      <point x="640" y="0"/>
      <point x="707" y="0"/>
      <point x="718" y="0" type="curve"/>
      <point x="729" y="34" type="line"/>
      <point x="717" y="34"/>
      <point x="655" y="34"/>
      <point x="608" y="34" type="curve" smooth="yes"/>
      <point x="586" y="34"/>
      <point x="568" y="36"/>
      <point x="568" y="58" type="curve"/>
      <point x="568" y="68"/>
      <point x="569" y="73"/>
      <point x="576" y="102" type="curve" smooth="yes"/>
      <point x="735" y="710" type="line"/>
      <point x="700" y="710" type="line"/>
      <point x="677" y="624" type="line" smooth="yes"/>
      <point x="661" y="566"/>
      <point x="630" y="551"/>
      <point x="577" y="551" type="curve" smooth="yes"/>
      <point x="519" y="551" type="line"/>
      <point x="510" y="519" type="line"/>
      <point x="847" y="519" type="line"/>
      <point x="857" y="555" type="line"/>
      <point x="683" y="555" type="line"/>
    </contour>
  </outline>
</glyph>
<glyph name="peso.proportional" format="2">
  <advance width="690"/>
  <outline>
    <contour>
      <point x="101" y="480" type="line"/>
      <point x="93" y="451" type="line"/>
      <point x="202" y="451" type="line"/>
      <point x="202" y="448" type="line"/>
      <point x="535" y="448" type="line"/>
      <point x="542" y="451" type="line"/>
      <point x="685" y="451" type="line"/>
      <point x="694" y="480" type="line"/>
      <point x="563" y="480" type="line"/>
      <point x="538" y="484" type="line"/>
      <point x="209" y="484" type="line"/>
      <point x="215" y="480" type="line"/>
    </contour>
    <contour>
      <point x="171" y="253" type="line"/>
      <point x="280" y="677" type="line"/>
      <point x="333" y="677" type="line" smooth="yes"/>
      <point x="486" y="677"/>
      <point x="540" y="610"/>
      <point x="540" y="504" type="curve" smooth="yes"/>
      <point x="540" y="464"/>
      <point x="532" y="423"/>
      <point x="516" y="386" type="curve" smooth="yes"/>
      <point x="482" y="311"/>
      <point x="406" y="253"/>
      <point x="273" y="253" type="curve" smooth="yes"/>
    </contour>
    <contour>
      <point x="162" y="710" type="line"/>
      <point x="151" y="674" type="line"/>
      <point x="163" y="674" type="line" smooth="yes"/>
      <point x="201" y="674"/>
      <point x="228" y="667"/>
      <point x="220" y="638" type="curve" smooth="yes"/>
      <point x="73" y="72" type="line" smooth="yes"/>
      <point x="65" y="43"/>
      <point x="34" y="36"/>
      <point x="-4" y="36" type="curve" smooth="yes"/>
      <point x="-15" y="36" type="line"/>
      <point x="-27" y="0" type="line"/>
      <point x="192" y="0" type="line"/>
      <point x="203" y="36" type="line"/>
      <point x="185" y="36" type="line" smooth="yes"/>
      <point x="153" y="36"/>
      <point x="114" y="39"/>
      <point x="116" y="46" type="curve" smooth="yes"/>
      <point x="161" y="219" type="line"/>
      <point x="267" y="219" type="line" smooth="yes"/>
      <point x="478" y="219"/>
      <point x="589" y="351"/>
      <point x="589" y="504" type="curve" smooth="yes"/>
      <point x="589" y="634"/>
      <point x="510" y="710"/>
      <point x="335" y="710" type="curve" smooth="yes"/>
    </contour>
  </outline>
</glyph>
<glyph name="ring.uc" format="2">
  <advance width="530"/>
  <anchor x="265" y="731" name="_top"/>
  <outline>
    <contour>
      <point x="261" y="820" type="curve" smooth="yes"/>
      <point x="210" y="820"/>
      <point x="179" y="845"/>
      <point x="179" y="890" type="curve" smooth="yes"/>
      <point x="179" y="940"/>
      <point x="210" y="979"/>
      <point x="271" y="979" type="curve" smooth="yes"/>
      <point x="321" y="979"/>
      <point x="353" y="954"/>
      <point x="353" y="910" type="curve" smooth="yes"/>
      <point x="353" y="858"/>
      <point x="321" y="820"/>
    </contour>
    <contour>
      <point x="259" y="783" type="curve" smooth="yes"/>
      <point x="349" y="783"/>
      <point x="407" y="835"/>
      <point x="407" y="911" type="curve" smooth="yes"/>
      <point x="407" y="970"/>
      <point x="358" y="1016"/>
      <point x="273" y="1016" type="curve" smooth="yes"/>
      <point x="183" y="1016"/>
      <point x="125" y="965"/>
      <point x="125" y="888" type="curve" smooth="yes"/>
      <point x="125" y="829"/>
      <point x="173" y="783"/>
    </contour>
  </outline>
</glyph>
<glyph name="ruble.proportional" format="2">
  <advance width="646"/>
  <outline>
    <contour>
      <point x="82" y="381" type="line"/>
      <point x="387" y="381" type="line" smooth="yes"/>
      <point x="517" y="381"/>
      <point x="587" y="435"/>
      <point x="587" y="556" type="curve" smooth="yes"/>
      <point x="587" y="629"/>
      <point x="543" y="674"/>
      <point x="445" y="674" type="curve" smooth="yes"/>
      <point x="307" y="674" type="line"/>
      <point x="142" y="46" type="line" smooth="yes"/>
      <point x="140" y="39"/>
      <point x="186" y="36"/>
      <point x="222" y="36" type="curve" smooth="yes"/>
      <point x="250" y="36" type="line"/>
      <point x="239" y="0" type="line"/>
      <point x="-22" y="0" type="line"/>
      <point x="-11" y="36" type="line"/>
      <point x="1" y="36" type="line" smooth="yes"/>
      <point x="53" y="36"/>
      <point x="93" y="43"/>
      <point x="101" y="72" type="curve" smooth="yes"/>
      <point x="248" y="638" type="line" smooth="yes"/>
      <point x="255" y="667"/>
      <point x="219" y="674"/>
      <point x="167" y="674" type="curve" smooth="yes"/>
      <point x="156" y="674" type="line"/>
      <point x="167" y="710" type="line"/>
      <point x="438" y="710" type="line" smooth="yes"/>
      <point x="575" y="710"/>
      <point x="638" y="650"/>
      <point x="638" y="556" type="curve" smooth="yes"/>
      <point x="638" y="430"/>
      <point x="538" y="346"/>
      <point x="385" y="346" type="curve" smooth="yes"/>
      <point x="72" y="346" type="line"/>
    </contour>
    <contour>
      <point x="422" y="184" type="line"/>
      <point x="29" y="184" type="line"/>
      <point x="39" y="220" type="line"/>
      <point x="433" y="220" type="line"/>
    </contour>
  </outline>
</glyph>
<glyph name="rupeeIndian" format="2">
  <advance width="594"/>
  <outline>
    <contour>
      <point x="100" y="508" type="line"/>
      <point x="89" y="471" type="line"/>
      <point x="588" y="471" type="line"/>
      <point x="599" y="508" type="line"/>
    </contour>
    <contour>
      <point x="95" y="268" type="line"/>
      <point x="135" y="268" type="line" smooth="yes"/>
      <point x="342" y="268"/>
      <point x="459" y="350"/>
      <point x="459" y="505" type="curve" smooth="yes"/>
      <point x="459" y="593"/>
      <point x="413" y="667"/>
      <point x="279" y="680" type="curve"/>
      <point x="267" y="674" type="line"/>
      <point x="645" y="674" type="line"/>
      <point x="655" y="710" type="line"/>
      <point x="154" y="710" type="line"/>
      <point x="142" y="668" type="line"/>
      <point x="227" y="668" type="line"/>
      <point x="362" y="668"/>
      <point x="413" y="586"/>
      <point x="413" y="502" type="curve" smooth="yes"/>
      <point x="413" y="368"/>
      <point x="323" y="295"/>
      <point x="138" y="295" type="curve" smooth="yes"/>
      <point x="65" y="295" type="line"/>
      <point x="57" y="273" type="line"/>
      <point x="302" y="0" type="line"/>
      <point x="397" y="0" type="line"/>
      <point x="408" y="36" type="line"/>
      <point x="377" y="36" type="line" smooth="yes"/>
      <point x="338" y="36"/>
      <point x="323" y="45"/>
      <point x="306" y="64" type="curve" smooth="yes"/>
      <point x="106" y="285" type="line"/>
    </contour>
  </outline>
</glyph>
<glyph name="rupeeIndian.proportional" format="2">
  <advance width="590"/>
  <outline>
    <contour>
      <point x="305" y="0" type="line"/>
      <point x="400" y="0" type="line"/>
      <point x="411" y="36" type="line"/>
      <point x="380" y="36" type="line" smooth="yes"/>
      <point x="341" y="36"/>
      <point x="327" y="46"/>
      <point x="309" y="64" type="curve" smooth="yes"/>
      <point x="94" y="285" type="line"/>
      <point x="81" y="268" type="line"/>
      <point x="138" y="268" type="line" smooth="yes"/>
      <point x="345" y="268"/>
      <point x="462" y="346"/>
      <point x="462" y="506" type="curve" smooth="yes"/>
      <point x="462" y="599"/>
      <point x="414" y="669"/>
      <point x="281" y="679" type="curve"/>
      <point x="269" y="674" type="line"/>
      <point x="648" y="674" type="line"/>
      <point x="658" y="710" type="line"/>
      <point x="142" y="710" type="line"/>
      <point x="130" y="668" type="line"/>
      <point x="229" y="668" type="line"/>
      <point x="366" y="668"/>
      <point x="417" y="589"/>
      <point x="417" y="502" type="curve" smooth="yes"/>
      <point x="417" y="362"/>
      <point x="327" y="295"/>
      <point x="140" y="295" type="curve" smooth="yes"/>
      <point x="53" y="295" type="line"/>
      <point x="45" y="273" type="line"/>
    </contour>
    <contour>
      <point x="88" y="508" type="line"/>
      <point x="77" y="471" type="line"/>
      <point x="591" y="471" type="line"/>
      <point x="602" y="508" type="line"/>
    </contour>
  </outline>
</glyph>
<glyph name="sterling.proportional" format="2">
  <advance width="629"/>
  <outline>
    <contour>
      <point x="394" y="699" type="curve" smooth="yes"/>
      <point x="469" y="699"/>
      <point x="524" y="687"/>
      <point x="581" y="652" type="curve"/>
      <point x="570" y="668"/>
      <point x="574" y="691"/>
      <point x="552" y="706" type="curve"/>
      <point x="510" y="549" type="line"/>
      <point x="559" y="549" type="line"/>
      <point x="597" y="692" type="line"/>
      <point x="581" y="700"/>
      <point x="514" y="735"/>
      <point x="398" y="735" type="curve" smooth="yes"/>
      <point x="243" y="735"/>
      <point x="141" y="662"/>
      <point x="141" y="528" type="curve" smooth="yes"/>
      <point x="141" y="439"/>
      <point x="185" y="373"/>
      <point x="185" y="266" type="curve" smooth="yes"/>
      <point x="185" y="150"/>
      <point x="106" y="85"/>
      <point x="-27" y="30" type="curve"/>
      <point x="-39" y="-9" type="line"/>
      <point x="133" y="50"/>
      <point x="232" y="129"/>
      <point x="232" y="283" type="curve" smooth="yes"/>
      <point x="232" y="377"/>
      <point x="195" y="454"/>
      <point x="195" y="536" type="curve" smooth="yes"/>
      <point x="195" y="643"/>
      <point x="271" y="699"/>
    </contour>
    <contour>
      <point x="43" y="366" type="line"/>
      <point x="33" y="332" type="line"/>
      <point x="464" y="332" type="line"/>
      <point x="472" y="366" type="line"/>
    </contour>
    <contour>
      <point x="374" y="-10" type="curve"/>
      <point x="464" y="-10"/>
      <point x="512" y="30"/>
      <point x="561" y="161" type="curve"/>
      <point x="519" y="175" type="line"/>
      <point x="477" y="74"/>
      <point x="446" y="38"/>
      <point x="378" y="38" type="curve"/>
      <point x="299" y="38"/>
      <point x="254" y="86"/>
      <point x="191" y="160" type="curve"/>
      <point x="165" y="124" type="line"/>
      <point x="243" y="41"/>
      <point x="273" y="-10"/>
    </contour>
  </outline>
</glyph>
<glyph name="three.lintab" format="2">
  <advance width="594"/>
  <outline>
    <contour>
      <point x="250" y="-11" type="curve" smooth="yes"/>
      <point x="410" y="-11"/>
      <point x="502" y="92"/>
      <point x="502" y="206" type="curve" smooth="yes"/>
      <point x="502" y="292"/>
      <point x="451" y="350"/>
      <point x="321" y="373" type="curve"/>
      <point x="321" y="357" type="line"/>
      <point x="330" y="387" type="line"/>
      <point x="319" y="376" type="line"/>
      <point x="457" y="381"/>
      <point x="553" y="444"/>
      <point x="553" y="581" type="curve" smooth="yes"/>
      <point x="553" y="672"/>
      <point x="476" y="735"/>
      <point x="348" y="735" type="curve" smooth="yes"/>
      <point x="274" y="735"/>
      <point x="206" y="710"/>
      <point x="179" y="697" type="curve"/>
      <point x="135" y="529" type="line"/>
      <point x="192" y="529" type="line"/>
      <point x="232" y="674" type="line"/>
      <point x="201" y="670"/>
      <point x="179" y="655"/>
      <point x="190" y="657" type="curve"/>
      <point x="208" y="665"/>
      <point x="266" y="694"/>
      <point x="346" y="694" type="curve" smooth="yes"/>
      <point x="442" y="694"/>
      <point x="500" y="656"/>
      <point x="500" y="584" type="curve" smooth="yes"/>
      <point x="500" y="447"/>
      <point x="414" y="393"/>
      <point x="275" y="393" type="curve" smooth="yes"/>
      <point x="190" y="393" type="line"/>
      <point x="178" y="355" type="line"/>
      <point x="259" y="355" type="line" smooth="yes"/>
      <point x="385" y="355"/>
      <point x="445" y="304"/>
      <point x="445" y="205" type="curve" smooth="yes"/>
      <point x="445" y="98"/>
      <point x="370" y="30"/>
      <point x="252" y="30" type="curve" smooth="yes"/>
      <point x="108" y="30"/>
      <point x="62" y="97"/>
      <point x="40" y="171" type="curve"/>
      <point x="-9" y="158" type="line"/>
      <point x="11" y="67"/>
      <point x="89" y="-11"/>
    </contour>
  </outline>
</glyph>
<glyph name="three.oldprop" format="2">
  <advance width="592"/>
  <outline>
    <contour>
      <point x="296" y="315" type="line"/>
      <point x="441" y="320"/>
      <point x="532" y="390"/>
      <point x="532" y="510" type="curve" smooth="yes"/>
      <point x="532" y="604"/>
      <point x="461" y="667"/>
      <point x="326" y="667" type="curve" smooth="yes"/>
      <point x="244" y="667"/>
      <point x="170" y="638"/>
      <point x="144" y="624" type="curve"/>
      <point x="102" y="463" type="line"/>
      <point x="159" y="463" type="line"/>
      <point x="198" y="611" type="line"/>
      <point x="166" y="608"/>
      <point x="144" y="592"/>
      <point x="154" y="587" type="curve"/>
      <point x="177" y="596"/>
      <point x="231" y="626"/>
      <point x="323" y="626" type="curve" smooth="yes"/>
      <point x="421" y="626"/>
      <point x="476" y="582"/>
      <point x="476" y="503" type="curve" smooth="yes"/>
      <point x="476" y="396"/>
      <point x="396" y="334"/>
      <point x="264" y="334" type="curve"/>
      <point x="158" y="334" type="line"/>
      <point x="147" y="296" type="line"/>
      <point x="240" y="296" type="line"/>
      <point x="375" y="296"/>
      <point x="426" y="221"/>
      <point x="426" y="139" type="curve" smooth="yes"/>
      <point x="426" y="28"/>
      <point x="351" y="-32"/>
      <point x="228" y="-32" type="curve" smooth="yes"/>
      <point x="98" y="-32"/>
      <point x="39" y="21"/>
      <point x="4" y="121" type="curve"/>
      <point x="-45" y="104" type="line"/>
      <point x="-12" y="3"/>
      <point x="64" y="-72"/>
      <point x="228" y="-72" type="curve" smooth="yes"/>
      <point x="372" y="-72"/>
      <point x="484" y="3"/>
      <point x="484" y="138" type="curve" smooth="yes"/>
      <point x="484" y="241"/>
      <point x="418" y="299"/>
      <point x="296" y="313" type="curve"/>
      <point x="304" y="297" type="line"/>
      <point x="311" y="328" type="line"/>
    </contour>
  </outline>
</glyph>
<glyph name="uni20B4.proportional" format="2">
  <advance width="654"/>
  <outline>
    <contour>
      <point x="490" y="456" type="line"/>
      <point x="542" y="487"/>
      <point x="595" y="527"/>
      <point x="595" y="605" type="curve" smooth="yes"/>
      <point x="595" y="688"/>
      <point x="534" y="730"/>
      <point x="415" y="730" type="curve"/>
      <point x="333" y="730"/>
      <point x="279" y="703"/>
      <point x="243" y="688" type="curve"/>
      <point x="213" y="576" type="line"/>
      <point x="267" y="576" type="line"/>
      <point x="298" y="701" type="line"/>
      <point x="286" y="696"/>
      <point x="268" y="675"/>
      <point x="265" y="657" type="curve"/>
      <point x="309" y="679"/>
      <point x="350" y="696"/>
      <point x="412" y="696" type="curve" smooth="yes"/>
      <point x="511" y="696"/>
      <point x="538" y="658"/>
      <point x="538" y="605" type="curve" smooth="yes"/>
      <point x="538" y="551"/>
      <point x="504" y="505"/>
      <point x="425" y="470" type="curve"/>
    </contour>
    <contour>
      <point x="271" y="-10" type="curve"/>
      <point x="365" y="-10"/>
      <point x="434" y="24"/>
      <point x="464" y="39" type="curve"/>
      <point x="497" y="164" type="line"/>
      <point x="444" y="164" type="line"/>
      <point x="410" y="37" type="line"/>
      <point x="427" y="41"/>
      <point x="449" y="52"/>
      <point x="440" y="62" type="curve"/>
      <point x="395" y="46"/>
      <point x="345" y="24"/>
      <point x="273" y="24" type="curve" smooth="yes"/>
      <point x="172" y="24"/>
      <point x="125" y="63"/>
      <point x="125" y="133" type="curve" smooth="yes"/>
      <point x="125" y="204"/>
      <point x="163" y="245"/>
      <point x="234" y="276" type="curve"/>
      <point x="150" y="278" type="line"/>
      <point x="105" y="251"/>
      <point x="68" y="206"/>
      <point x="68" y="132" type="curve" smooth="yes"/>
      <point x="68" y="44"/>
      <point x="136" y="-10"/>
    </contour>
    <contour>
      <point x="28" y="283" type="line"/>
      <point x="18" y="249" type="line"/>
      <point x="588" y="249" type="line"/>
      <point x="598" y="283" type="line"/>
    </contour>
    <contour>
      <point x="80" y="485" type="line"/>
      <point x="70" y="451" type="line"/>
      <point x="640" y="451" type="line"/>
      <point x="650" y="485" type="line"/>
    </contour>
  </outline>
</glyph>
<glyph name="zero.slash" format="2">
  <advance width="594"/>
  <outline>
    <contour>
      <point x="234" y="-11" type="curve" smooth="yes"/>
      <point x="442" y="-11"/>
      <point x="560" y="238"/>
      <point x="560" y="478" type="curve" smooth="yes"/>
      <point x="560" y="611"/>
      <point x="480" y="693"/>
      <point x="360" y="693" type="curve" smooth="yes"/>
      <point x="152" y="693"/>
      <point x="34" y="444"/>
      <point x="34" y="204" type="curve" smooth="yes"/>
      <point x="34" y="71"/>
      <point x="114" y="-11"/>
    </contour>
    <contour>
      <point x="240" y="28" type="curve" smooth="yes"/>
      <point x="135" y="28"/>
      <point x="85" y="91"/>
      <point x="85" y="196" type="curve" smooth="yes"/>
      <point x="85" y="250"/>
      <point x="90" y="310"/>
      <point x="108" y="373" type="curve" smooth="yes"/>
      <point x="157" y="558"/>
      <point x="239" y="655"/>
      <point x="354" y="655" type="curve" smooth="yes"/>
      <point x="458" y="655"/>
      <point x="509" y="591"/>
      <point x="509" y="486" type="curve" smooth="yes"/>
      <point x="509" y="433"/>
      <point x="503" y="373"/>
      <point x="485" y="309" type="curve" smooth="yes"/>
      <point x="436" y="124"/>
      <point x="355" y="28"/>
    </contour>
    <contour>
      <point x="71" y="151" type="line"/>
      <point x="539" y="498" type="line"/>
      <point x="525" y="532" type="line"/>
      <point x="53" y="181" type="line"/>
    </contour>
  </outline>
</glyph>
